<?xml version="1.0" encoding="UTF-8" standalone="no"?>
<!-- Created with Inkscape (http://www.inkscape.org/) -->

<svg
   xmlns:dc="http://purl.org/dc/elements/1.1/"
   xmlns:cc="http://creativecommons.org/ns#"
   xmlns:rdf="http://www.w3.org/1999/02/22-rdf-syntax-ns#"
   xmlns:svg="http://www.w3.org/2000/svg"
   xmlns="http://www.w3.org/2000/svg"
   xmlns:sodipodi="http://sodipodi.sourceforge.net/DTD/sodipodi-0.dtd"
   xmlns:inkscape="http://www.inkscape.org/namespaces/inkscape"
   width="577.97784"
   height="318.80716"
   viewBox="0 0 152.92331 84.351059"
   version="1.1"
   id="svg8"
   inkscape:version="0.92.3 (2405546, 2018-03-11)"
   sodipodi:docname="121gw-lcd.svg">
  <defs
     id="defs2">
    <rect
       height="836.94"
       width="594.65997"
       y="2.4890001"
       x="0.18000001"
       id="SVGID_1_" />
    <rect
       height="0.54000002"
       width="0.54000002"
       y="2.4890001"
       x="594.29999"
       id="SVGID_3_" />
    <rect
       height="0.54000002"
       width="0.54000002"
       y="2.4890001"
       x="0.18000001"
       id="SVGID_5_" />
    <rect
       height="0.54000002"
       width="594.65997"
       y="2.4890001"
       x="0.18000001"
       id="SVGID_7_" />
    <rect
       height="0.54000002"
       width="0.54000002"
       y="838.89001"
       x="594.29999"
       id="SVGID_1_-4" />
    <rect
       height="0.54000002"
       width="594.65997"
       y="838.89001"
       x="0.18000001"
       id="SVGID_3_-3" />
    <rect
       height="836.94"
       width="594.65997"
       y="2.4890001"
       x="0.18000001"
       id="SVGID_5_-3" />
    <rect
       height="0.54000002"
       width="0.54000002"
       y="838.89001"
       x="594.29999"
       id="SVGID_1_-3" />
    <rect
       height="0.54000002"
       width="594.65997"
       y="838.89001"
       x="0.18000001"
       id="SVGID_3_-5" />
    <rect
       height="836.94"
       width="594.65997"
       y="2.4890001"
       x="0.18000001"
       id="SVGID_5_-0" />
  </defs>
  <sodipodi:namedview
     id="base"
     pagecolor="#ffffff"
     bordercolor="#666666"
     borderopacity="1.0"
     inkscape:pageopacity="0.0"
     inkscape:pageshadow="2"
     inkscape:zoom="2"
     inkscape:cx="200.94153"
     inkscape:cy="263.20017"
     inkscape:document-units="px"
     inkscape:current-layer="layer1"
     showgrid="false"
     inkscape:window-width="1920"
     inkscape:window-height="1018"
     inkscape:window-x="0"
     inkscape:window-y="25"
     inkscape:window-maximized="1"
     units="px" />
  <metadata
     id="metadata5">
    <rdf:RDF>
      <cc:Work
         rdf:about="">
        <dc:format>image/svg+xml</dc:format>
        <dc:type
           rdf:resource="http://purl.org/dc/dcmitype/StillImage" />
        <dc:title />
      </cc:Work>
    </rdf:RDF>
  </metadata>
  <g
     inkscape:label="Layer 1"
     inkscape:groupmode="layer"
     id="layer1"
     transform="translate(-24.575937,-125.35773)">
    <path
       style="clip-rule:evenodd;fill-rule:evenodd;stroke-width:0.41784844"
       d="m 40.737326,209.69631 h -2.08088 v -5.5156 h 2.08088 l 2.40681,2.75822 z"
       id="bar.0"
       inkscape:label=""
       inkscape:connector-curvature="0" />
    <path
       style="clip-rule:evenodd;fill-rule:evenodd;stroke-width:1.57926965"
       d="m 541.30469,57.042969 v 19.804687 h 3.69726 v -8.908203 h 6.91797 v 8.908203 h 3.69336 V 57.042969 h -3.69336 v 7.486328 h -6.91797 v -7.486328 z m 16.86719,5.21289 v 3.126953 h 6.0664 l -6.44531,8.431641 v 3.033203 h 11.08789 v -3.126953 h -6.72852 l 6.44336,-8.337891 v -3.126953 z"
       transform="matrix(0.26458333,0,0,0.26458333,24.575937,125.35773)"
       id="unit.sub.hz"
       inkscape:label=""
       inkscape:connector-curvature="0" />
    <path
       style="clip-rule:evenodd;fill-rule:evenodd;stroke-width:0.41784844"
       d="m 168.39798,136.06305 c -2.84597,-0.64641 -0.80603,-4.19102 1.45411,-2.55723 v 0.0251 c 0.36186,0.27035 0.49348,0.74669 0.50183,1.17833 h -0.85241 c -0.011,-0.51646 -0.41241,-0.75798 -0.87747,-0.75212 -0.46884,4.1e-4 -0.81565,0.20432 -0.75256,0.72705 0.24779,0.75672 2.38048,0.26116 2.60738,1.72989 0.33385,2.42144 -3.61522,2.40639 -3.5095,0.20057 h 0.85198 c 0.0305,0.81731 0.80813,0.8942 1.42946,0.72706 l 0.12539,-0.0752 0.10029,-0.0752 0.0998,-0.12535 0.0502,-0.12535 v -0.30085 l -0.0752,-0.12536 -0.0749,-0.10028 -0.0251,-0.0251 -0.1254,-0.0752 -0.12539,-0.0501 -0.12571,-0.0251 -0.12539,-0.0501 -0.0998,-0.0251 z"
       id="unit.sub.s"
       inkscape:label=""
       inkscape:connector-curvature="0" />
    <path
       style="clip-rule:evenodd;fill-rule:evenodd;stroke-width:0.41784844"
       d="m 170.65477,127.86486 0.0251,0.15043 v 2.65752 h -0.82776 v -2.53217 l -0.0246,-0.15042 -0.0254,-0.0752 -0.0749,-0.12535 -0.10075,-0.0752 -0.12492,-0.0501 h -0.22563 l -0.1254,0.0752 -0.10076,0.0752 -0.0752,0.12536 -0.0251,0.0501 -0.0251,0.12537 -0.0246,0.15042 v 2.40681 h -0.80227 v -2.53216 l -0.0251,-0.12535 -0.0251,-0.0752 -0.0756,-0.12536 -0.10028,-0.10029 -0.12539,-0.0501 h -0.0998 l -0.1254,0.0251 -0.12539,0.0251 -0.1254,0.10029 -0.0756,0.10028 v 0.0251 l -0.0251,0.12535 -0.0251,0.15042 v 2.45695 h -0.80185 v -3.76063 h 0.75171 v 0.55156 c 0.20266,-0.38359 0.40406,-0.65227 0.87748,-0.65185 0.51187,-0.0147 0.65184,0.23776 0.82776,0.65185 0.13708,-0.43916 0.63053,-0.72372 1.07805,-0.62678 0.43915,0.0313 0.796,0.62218 0.77719,1.02791 z"
       id="unit.sub.milli"
       inkscape:label=""
       inkscape:connector-curvature="0" />
    <path
       style="clip-rule:evenodd;fill-rule:evenodd;stroke-width:1.57926965"
       d="m 560.54102,0.7578125 -5.6836,19.3300785 h 3.50391 l 1.04297,-3.978516 h 5.9707 l 1.04297,3.978516 h 3.59765 L 564.33203,0.7578125 Z m 1.89453,4.7382813 1.99218,7.5800782 h -4.07617 z"
       transform="matrix(0.26458333,0,0,0.26458333,24.575937,125.35773)"
       id="unit.sub.a"
       inkscape:label=""
       inkscape:connector-curvature="0" />
    <path
       style="clip-rule:evenodd;fill-rule:evenodd;stroke-width:0.41784844"
       d="m 175.04223,136.86532 -0.0752,0.12535 -0.0752,0.10028 -0.10028,0.10028 -0.0756,0.10029 h 0.75253 v 0.82734 h -1.93045 v -0.77719 c 1.32708,-0.5595 1.58865,-3.35574 -0.15082,-3.50993 -1.90706,-0.0873 -1.67139,2.89945 -0.3255,3.48486 v 0.80227 h -1.93045 v -0.82734 h 0.80227 c -1.26525,-1.13196 -0.94183,-3.97333 0.92761,-4.26206 2.26809,-0.3652 3.06033,1.95511 2.28146,3.7105 h -0.0251 z"
       id="unit.sub.ohm"
       inkscape:label=""
       inkscape:connector-curvature="0" />
    <path
       style="clip-rule:evenodd;fill-rule:evenodd;stroke-width:0.41784844"
       d="m 161.52859,140.45046 h 1.02833 l -1.63003,5.23982 h -0.92721 l -1.57988,-5.23982 h 1.05339 l 1.02791,3.98627 z"
       id="unit.sub.v"
       inkscape:label=""
       inkscape:connector-curvature="0" />
    <path
       style="clip-rule:evenodd;fill-rule:evenodd;stroke-width:1.57926965"
       d="M 520.64844,0.7578125 V 20.087891 h 7.58203 l 0.56836,-0.09375 h 0.47265 l 0.47461,-0.189453 0.47461,-0.0957 0.47461,-0.189453 c 1.05177,-0.582765 1.75156,-1.663095 2.17774,-2.748047 0.85277,-2.321537 0.61279,-5.982609 -1.98828,-7.1054684 h 0.0937 l 0.37695,-0.2851562 0.75781,-0.7578125 0.18945,-0.3789063 0.18946,-0.4746094 c 0.47849,-0.8054551 0.21908,-2.082135 0.28711,-3.03125 -0.35063,-2.2978393 -1.80734,-3.89051594 -4.16992,-3.9804687 z m -6.34571,0.3808594 V 7.7714844 L 514.01758,7.296875 513.73438,6.9179688 513.35352,6.5390625 512.4043,5.9707031 511.93359,5.875 511.36328,5.78125 510.89062,5.6855469 c -1.37559,0.082129 -2.80935,0.5838057 -3.69531,1.7050781 v 0.00195 c -2.11619,2.5599874 -2.35542,7.30291 -0.85351,10.232422 1.62187,3.534387 6.39578,4.075365 8.15039,0.474609 v 1.990235 h 3.21875 V 1.1386719 Z m 9.38086,2.9355469 h 3.69336 l 0.47461,0.095703 0.56836,0.09375 0.47461,0.095703 0.37695,0.3789062 0.28516,0.3789063 0.0957,0.5683594 c 0.39009,1.2728693 -0.36274,2.5812886 -1.70507,2.6523437 h -0.47461 -3.78907 z M 511.0957,8.9140625 c 0.60029,-0.086994 1.32103,0.096294 2.16407,0.65625 0.88573,1.2697325 0.8729,1.1003065 1.13671,2.6542965 -0.0616,0.919144 0.18219,2.353095 -0.28515,3.126953 -0.50223,2.117783 -2.81923,2.794897 -4.35742,1.326172 -1.61291,-1.928565 -1.25945,-7.3866958 1.34179,-7.7636715 z m 12.58594,2.6464845 h 4.35938 l 0.56836,0.09375 h 0.002 c 1.60622,0.762784 1.54381,1.986603 1.32422,3.505859 l -0.18946,0.47461 -0.28515,0.474609 -0.37891,0.283203 h -0.0937 l -0.47266,0.189453 -0.56835,0.0957 -0.47461,0.09375 h -3.79102 z"
       transform="matrix(0.26458333,0,0,0.26458333,24.575937,125.35773)"
       id="unit.sub.db"
       inkscape:label=""
       inkscape:connector-curvature="0" />
    <path
       style="clip-rule:evenodd;fill-rule:evenodd;stroke-width:0.41784844"
       d="m 160.40039,133.25511 v 0.12536 l -0.20056,0.87748 -0.0251,0.0752 -0.0748,0.12537 c -0.12413,0.22271 -0.34013,0.29123 -0.57705,0.32592 -0.46507,-0.008 -0.70031,-0.35434 -0.77678,-0.7772 0.0815,-0.85701 0.38608,-1.86695 1.45368,-1.27862 v 0.0251 l 0.10029,0.10029 0.0502,0.12534 0.0254,0.15043 z"
       id="path6283"
       inkscape:connector-curvature="0" />
    <path
       style="clip-rule:evenodd;fill-rule:evenodd;stroke-width:0.41784844"
       d="m 162.43155,136.99067 v 0.10029 l -0.17548,0.90255 -0.0254,0.0752 -0.0752,0.12535 c -0.13156,0.15377 -0.37063,0.31004 -0.57622,0.32592 -0.48636,-0.0497 -0.84195,-0.42663 -0.77761,-0.92762 l 0.0502,-0.25071 0.0251,-0.15043 0.0251,-0.12535 c 0.11118,-0.26491 0.0213,-0.35475 0.2762,-0.57663 0.21645,-0.15669 0.28539,-0.22647 0.55156,-0.20056 h 0.12539 l 0.1254,0.0501 0.15003,0.0501 0.10028,0.0752 h 0.0254 l 0.0748,0.12534 0.10076,0.25071 z"
       id="path6279"
       inkscape:connector-curvature="0" />
    <g
       id="unit.sub.percent"
       inkscape:label="">
      <path
         inkscape:connector-curvature="0"
         id="path6281"
         d="m 159.77363,133.15483 -0.1254,-0.0501 -0.10028,0.0251 -0.0749,0.10028 -0.17549,0.80227 v 0.0501 l 0.0752,0.10028 0.12539,0.0501 0.0998,-0.0251 0.0752,-0.10028 0.17592,-0.80227 v -0.0501 z"
         style="clip-rule:evenodd;fill-rule:evenodd;stroke-width:0.41784844" />
      <path
         inkscape:connector-curvature="0"
         id="path6277"
         d="m 161.87999,137.04077 v -0.0501 l -0.0752,-0.12534 -0.12539,-0.0501 -0.10029,0.0501 -0.0756,0.10028 -0.17508,0.7772 v 0.0251 l 0.0251,0.0251 0.0497,0.12536 0.1505,0.0501 0.0756,-0.0251 0.10028,-0.12534 z"
         style="clip-rule:evenodd;fill-rule:evenodd;stroke-width:0.41784844" />
      <path
         inkscape:connector-curvature="0"
         inkscape:label=""
         id="path6276"
         d="m 162.58198,132.75365 h -0.72705 l -3.38499,5.86659 h 0.72705 z"
         style="clip-rule:evenodd;fill-rule:evenodd;stroke-width:0.41784844" />
    </g>
    <path
       style="clip-rule:evenodd;fill-rule:evenodd;stroke-width:0.41784844"
       d="m 164.08623,140.45042 h 0.87749 v 2.83301 l 1.15327,-1.47918 h 1.15326 l -1.25355,1.45411 1.2782,2.43188 h -1.10271 l -0.85241,-1.65468 -0.37606,0.4262 v 1.22848 h -0.87749 z"
       id="unit.sub.kilo"
       inkscape:label=""
       inkscape:connector-curvature="0" />
    <path
       style="clip-rule:evenodd;fill-rule:evenodd;stroke-width:0.41784844"
       d="m 164.48743,134.48354 c 2.34998,-0.91509 1.82767,2.45194 1.78004,3.63528 h -0.92763 v -2.38173 l -0.0254,-0.15043 -0.0251,-0.12536 -0.0251,-0.0501 c -0.17465,-0.27536 -0.32675,-0.28121 -0.62676,-0.27578 -0.38108,0.15418 -0.2503,0.0606 -0.47636,0.40113 l -0.0502,0.15043 -0.0246,0.12536 v 0.15043 l -0.0254,0.12534 v 2.03075 h -0.87707 v -3.68542 h 0.852 v 0.52649 c 0.0678,-0.14875 0.29793,-0.41659 0.45169,-0.47635 z"
       id="unit.sub.nano"
       inkscape:label=""
       inkscape:connector-curvature="0" />
    <path
       style="clip-rule:evenodd;fill-rule:evenodd;stroke-width:0.41784844"
       d="m 176.84741,182.74504 c 0.76299,1.10689 0.70199,2.98971 -0.37648,3.88599 h 0.92804 v 0.9527 h -2.3316 v -0.90255 c 1.66387,-0.63973 1.86444,-3.9658 -0.30126,-3.98629 -1.00243,-0.0276 -1.58658,0.80437 -1.57905,1.7299 -0.0126,0.93307 0.44292,1.84481 1.27861,2.25639 v 0.90255 h -2.35708 v -0.9527 h 1.00325 c -1.17959,-0.97567 -1.21051,-2.88106 -0.30126,-4.03642 0.88207,-1.18627 3.24375,-1.09225 4.03683,0.15035 z"
       id="unit.main.ohm"
       inkscape:label=""
       inkscape:connector-curvature="0" />
    <path
       style="clip-rule:evenodd;fill-rule:evenodd;stroke-width:0.41784844"
       d="m 170.75517,183.34675 -1.45411,1.52932 1.50384,2.55723 h -1.30327 l -0.97776,-1.75496 -0.42621,0.45128 v 1.30368 h -1.05339 v -5.5156 h 1.05339 v 2.98345 l 1.32876,-1.5544 z"
       id="unit.main.kilo"
       inkscape:label=""
       inkscape:connector-curvature="0" />
    <path
       style="clip-rule:evenodd;fill-rule:evenodd;stroke-width:1.57926965"
       d="m 554.12305,117 c -6.42225,0.0581 -7.30075,9.27169 -0.40235,10.16211 6.98196,0.4422 7.97562,-9.31428 1.04102,-10.13867 -0.21863,-0.0178 -0.4315,-0.0253 -0.63867,-0.0234 z m 8.69336,2.39258 v 20.4668 h 4.26367 v -8.52735 h 9.1914 v -3.60156 h -9.1914 v -4.73633 h 10.51953 v -3.60156 z m -8.6211,0.94726 h 0.0937 l 0.56836,0.0957 0.47266,0.2832 0.2832,0.38086 0.28711,0.47266 0.0918,0.47461 v 0.18945 l -0.37891,0.94726 -0.3789,0.28321 -0.47071,0.28515 c -0.99496,0.10742 -1.8158,-0.20019 -2.27539,-1.13672 l -0.0937,-0.56835 v -0.0957 l 0.18945,-0.47461 0.28125,-0.47265 0.38086,-0.37891 0.47461,-0.18945 z"
       transform="matrix(0.26458333,0,0,0.26458333,24.575937,125.35773)"
       id="unit.main.fahrenheit"
       inkscape:label=""
       inkscape:connector-curvature="0" />
    <path
       style="clip-rule:evenodd;fill-rule:evenodd;stroke-width:0.41784844"
       d="m 171.13124,165.42104 h 1.17792 l -1.85484,5.5156 h -1.10312 l -1.85524,-5.5156 h 1.22848 l 1.2034,4.18684 z"
       id="unit.main.v"
       inkscape:label=""
       inkscape:connector-curvature="0" />
    <path
       style="clip-rule:evenodd;fill-rule:evenodd;stroke-width:0.41784844"
       d="m 169.40134,178.3827 h -0.92761 v -5.26489 h 3.58472 v 0.70198 h -2.65711 v 1.5544 h 2.30653 v 0.67692 h -2.30653 z"
       id="unit.main.f"
       inkscape:label=""
       inkscape:connector-curvature="0" />
    <path
       style="clip-rule:evenodd;fill-rule:evenodd;stroke-width:1.57926965"
       d="m 566.32227,152.27344 -7.77149,19.80468 h 3.69531 l 2.46485,-6.16015 h 6.63476 l 2.36719,6.16015 h 3.69727 l -7.77149,-19.80468 z m 1.70507,5.11718 2.27539,5.875 h -4.54882 z"
       transform="matrix(0.26458333,0,0,0.26458333,24.575937,125.35773)"
       id="unit.main.a1"
       inkscape:label=""
       inkscape:connector-curvature="0" />
    <path
       style="clip-rule:evenodd;fill-rule:evenodd;stroke-width:1.57926965"
       d="m 566.89062,180.50977 -7.76953,19.90039 h 3.69532 l 2.46289,-6.25391 h 6.53711 l 2.46484,6.25391 h 3.69727 l -7.77149,-19.90039 z m 1.70704,5.11718 2.27343,5.875 h -4.64257 z"
       transform="matrix(0.26458333,0,0,0.26458333,24.575937,125.35773)"
       id="unit.main.a2"
       inkscape:label=""
       inkscape:connector-curvature="0" />
    <path
       style="clip-rule:evenodd;fill-rule:evenodd;stroke-width:1.57926965"
       d="m 518.30859,117 c -6.40374,0.0484 -7.21935,9.28853 -0.4082,10.16211 6.99938,0.42641 8.00163,-9.31587 1.04492,-10.13867 -0.21813,-0.0182 -0.43014,-0.025 -0.63672,-0.0234 z m 15.83789,2.41992 c -0.59758,0.0109 -1.16197,0.0646 -1.65234,0.16211 -7.88527,0.99651 -9.5501,11.8292 -5.30664,17.24609 4.39986,5.22267 14.92082,3.86385 16.01367,-4.16992 h -4.26367 c -1.57289,6.08334 -10.05198,4.59505 -9.57031,-3.03125 0.09,-2.53946 0.75319,-5.57633 3.50586,-6.44336 2.52997,-0.99651 5.47711,0.41851 6.06445,3.12696 h 4.35742 c -0.41216,-2.47945 -1.61434,-4.70738 -3.97851,-5.78125 -1.28753,-0.78183 -3.37718,-1.14205 -5.16993,-1.10938 z m -15.51171,0.92578 c 1.60371,0.14867 2.34268,2.59787 0.30859,3.40625 h -0.66406 l -0.47266,-0.0957 -0.47461,-0.18945 -0.37695,-0.37891 -0.18946,-0.47266 -0.0957,-0.56835 v -0.0957 l 0.0957,-0.47461 0.28321,-0.47265 0.3789,-0.37891 0.47266,-0.18945 c 0.2588,-0.0841 0.50527,-0.11108 0.73438,-0.0899 z"
       transform="matrix(0.26458333,0,0,0.26458333,24.575937,125.35773)"
       id="unit.main.celcius"
       inkscape:label=""
       inkscape:connector-curvature="0" />
    <path
       style="clip-rule:evenodd;fill-rule:evenodd;stroke-width:0.41784844"
       d="m 161.60387,183.37182 v 4.06148 h -1.05255 v -5.5156 h 1.65468 l 1.00284,4.33728 1.00241,-4.33728 h 1.65468 v 5.5156 h -1.07804 c 0,-1.54604 0,-3.09208 0,-4.63812 l -1.02749,4.63812 h -1.1282 l -1.02833,-4.63812 c 0,0.19221 0,0.38442 0,0.57664 z"
       id="unit.main.mega"
       inkscape:label=""
       inkscape:connector-curvature="0" />
    <path
       style="clip-rule:evenodd;fill-rule:evenodd;stroke-width:0.41784844"
       d="m 165.76607,168.47969 c -0.0952,-0.45462 -0.50518,-0.55866 -0.87749,-0.4262 l -0.12539,0.0501 -0.10076,0.0752 -0.0752,0.12534 -0.0251,0.0501 -0.0498,0.12537 -0.0251,0.12534 v 2.43188 h -1.07847 v -2.40681 l -0.0251,-0.12536 -0.0251,-0.15042 -0.0251,-0.0752 -0.0749,-0.10029 -0.12539,-0.10028 -0.12539,-0.0501 -0.1254,-0.0251 h -0.0757 l -0.15034,0.0251 -0.12492,0.0251 -0.1254,0.0501 -0.12571,0.0752 -0.0748,0.10028 h -0.0254 l -0.0501,0.12535 -0.0251,0.15043 v 2.48201 h -1.07799 v -3.78571 h 1.0279 v 0.55156 l 0.0752,-0.10028 0.10029,-0.12535 0.0756,-0.10028 0.1254,-0.0752 v -0.0251 c 0.52106,-0.25949 0.53984,-0.19305 1.07806,-0.20057 l 0.12539,0.0251 0.15035,0.0501 0.12492,0.0501 0.0752,0.0501 0.20098,0.20057 0.0752,0.10028 0.0752,0.12535 v 0.0251 c 0.38651,-0.57498 1.00327,-0.72541 1.65427,-0.57666 0.25531,0.0272 0.64766,0.3535 0.75254,0.6017 l 0.0501,0.12535 0.0251,0.12535 0.0251,0.15042 0.0251,0.12535 v 2.68259 h -1.10311 z"
       id="unit.main.milli"
       inkscape:label=""
       inkscape:connector-curvature="0" />
    <path
       style="clip-rule:evenodd;fill-rule:evenodd;stroke-width:0.41784844"
       d="m 167.32047,176.05111 v 2.33159 h -0.92763 v -2.23131 l -0.0251,-0.1505 -0.0502,-0.12539 -0.0752,-0.10029 -0.10028,-0.12539 c -0.21644,-0.20809 -0.58624,-0.31047 -0.8779,-0.30085 -1.77,0.0873 -0.95186,1.68393 -1.12777,3.03357 h -0.92762 v -3.58513 h 0.92762 v 0.40113 h 0.0246 l 0.10076,-0.0752 0.12539,-0.0752 0.37608,-0.15034 0.15034,-0.0251 c 0.47134,-0.10787 0.45504,-0.0769 0.90213,-0.0501 0.66438,0.11244 1.3789,0.51896 1.50468,1.22846 z"
       id="unit.main.nano"
       inkscape:label=""
       inkscape:connector-curvature="0" />
    <path
       style="clip-rule:evenodd;fill-rule:evenodd;stroke-width:0.41784844"
       d="m 165.81579,175.64998 v 3.68541 h -0.92721 v -0.22563 c -0.63303,0.32175 -1.63838,0.35392 -2.25638,0 v 1.05298 h -0.92804 v -4.51276 h 0.92804 v 2.20624 l 0.0246,0.1505 0.0501,0.1254 0.0752,0.12539 0.10076,0.10028 c 0.21435,0.18678 0.59376,0.31799 0.87749,0.30085 1.77878,-0.0632 0.92261,-1.67976 1.12818,-3.00851 z"
       id="unit.main.micro"
       inkscape:label=""
       inkscape:connector-curvature="0" />
    <path
       inkscape:connector-curvature="0"
       style="clip-rule:evenodd;fill-rule:evenodd;stroke-width:0.41784844"
       d="m 155.63743,147.82126 c 0.25614,-0.28162 0.44792,-0.4542 0.62676,-0.80226 h 0.5265 v 6.66886 h -0.82776 v -5.18968 c -0.47509,0.42955 -1.05758,0.74377 -1.65427,0.97776 v -0.77719 c 0.61424,-0.30169 0.80979,-0.45128 1.32877,-0.87749 z"
       id="path6229" />
    <g
       id="unit.main.milliseconds"
       inkscape:label="">
      <path
         id="path6231"
         d="m 161.65402,149.90215 c 0.39612,-0.19179 0.93682,-0.0364 1.15326,0.35099 0.13961,0.1801 0.15761,0.40866 0.20099,0.62678 0,0.93598 0,1.87196 0,2.80794 H 162.206 v -2.40681 l -0.0254,-0.15043 -0.0251,-0.12536 -0.0251,-0.0752 c -0.064,-0.26826 -0.2925,-0.31673 -0.5265,-0.25071 l -0.1254,0.0501 -0.0998,0.10029 -0.0502,0.12534 -0.0251,0.0501 -0.0502,0.12537 v 0.12534 l -0.0251,0.15043 v 2.28145 h -0.80227 v -2.53216 l -0.0254,-0.12535 c -0.0276,-0.20224 -0.18135,-0.38316 -0.40071,-0.35099 h -0.15035 l -0.12571,0.0501 -0.10028,0.0752 -0.0752,0.12535 -0.0498,0.15042 -0.0251,0.12536 v 2.48202 h -0.80227 v -3.7857 h 0.77721 v 0.55156 c 0.2766,-0.82818 1.4679,-0.87498 1.67974,0 0.20935,-0.27829 0.1851,-0.3698 0.52607,-0.55156 z"
         style="clip-rule:evenodd;fill-rule:evenodd;stroke-width:0.41784844"
         inkscape:connector-curvature="0" />
      <path
         id="path6227"
         d="m 166.61806,150.95513 h -0.67691 c 0.0368,-0.2716 -0.29501,-0.39445 -0.50101,-0.45128 -0.39486,-0.0714 -0.55029,-0.0911 -0.92761,0.0752 -0.65812,0.24653 -0.23901,0.82191 0.37605,0.82734 0.71871,0.0957 0.85158,0.0109 1.45411,0.50142 0.32551,0.33929 0.38568,0.91175 0.0251,1.25355 -0.67693,0.85282 -2.69095,0.65644 -2.85809,-0.55156 h 0.67691 c 0.1404,0.50058 1.13112,0.50852 1.52933,0.27578 0.64515,-0.44877 -0.21353,-0.8591 -0.65184,-0.80227 -1.00535,0.0318 -2.1582,-0.94727 -1.17834,-1.85525 0.7492,-0.73249 2.66838,-0.46507 2.73231,0.72706 z"
         style="clip-rule:evenodd;fill-rule:evenodd;stroke-width:0.41784844"
         inkscape:connector-curvature="0" />
    </g>
    <path
       style="clip-rule:evenodd;fill-rule:evenodd;stroke-width:0.41784844"
       d="m 146.33611,127.78961 c 0.0777,-0.65853 0.88584,-2.00567 1.4537,-2.35666 l 0.77762,3.05865 -0.65227,5.06432 -1.40397,1.5544 -0.85199,-0.92763 0.65185,-6.26772 z"
       id="aux.0.f"
       inkscape:label=""
       inkscape:connector-curvature="0" />
    <path
       style="clip-rule:evenodd;fill-rule:evenodd;stroke-width:0.41784844"
       d="m 151.30015,142.65666 0.75172,2.55723 h -4.93898 l -0.0752,0.0251 -0.12492,-0.0251 h -0.15035 l -0.12539,-0.0251 -0.15082,-0.0251 -0.1254,-0.0251 c -0.34137,-0.1124 -0.69696,-0.25948 -0.95269,-0.52649 l 1.52974,-1.95553 z"
       id="aux.0.d"
       inkscape:label=""
       inkscape:connector-curvature="0" />
    <path
       style="clip-rule:evenodd;fill-rule:evenodd;stroke-width:0.41784844"
       d="m 145.03242,144.06063 c -0.25655,-0.46632 -0.33888,-0.77469 -0.3514,-1.30369 0.0313,-1.82474 0.31672,-3.97666 0.52648,-5.61588 l 1.2034,-1.40397 1.15369,1.25354 -0.85241,5.21475 -1.60496,1.95553 z"
       id="aux.0.e"
       inkscape:label=""
       inkscape:connector-curvature="0" />
    <path
       style="clip-rule:evenodd;fill-rule:evenodd;stroke-width:0.41784844"
       d="m 142.2997,145.21389 0.22563,-2.20624 h 1.37848 l -0.20014,2.20624 z"
       id="aux.1.dp"
       inkscape:label=""
       inkscape:connector-curvature="0" />
    <path
       style="clip-rule:evenodd;fill-rule:evenodd;stroke-width:0.41784844"
       d="m 134.15165,127.78961 c 0.13503,-0.67148 0.87582,-2.02071 1.47919,-2.35666 l 0.77678,3.05865 -0.65184,5.06432 -1.42863,1.5544 -0.82775,-0.92763 0.62676,-6.26772 z"
       id="aux.1.f"
       inkscape:label=""
       inkscape:connector-curvature="0" />
    <path
       style="clip-rule:evenodd;fill-rule:evenodd;stroke-width:0.41784844"
       d="m 133.32389,144.71247 -0.0752,-0.10028 1.50425,-1.95553 h 4.3874 l 0.75256,2.55723 h -4.96404 l -0.0502,0.0251 -0.15035,-0.0251 h -0.12571 l -0.1505,-0.0251 -0.2503,-0.0501 c -0.32424,-0.0714 -0.60546,-0.24026 -0.8779,-0.4262 z"
       id="aux.1.d"
       inkscape:label=""
       inkscape:connector-curvature="0" />
    <path
       style="clip-rule:evenodd;fill-rule:evenodd;stroke-width:0.41784844"
       d="m 132.87262,144.06063 c -0.26785,-0.37565 -0.35476,-0.85116 -0.35057,-1.30369 -0.0502,-1.88617 0.52858,-3.71007 0.50142,-5.61588 l 1.22846,-1.40397 1.15327,1.25354 -0.85283,5.21475 -1.60412,1.95553 z"
       id="aux.1.e"
       inkscape:label=""
       inkscape:connector-curvature="0" />
    <path
       style="clip-rule:evenodd;fill-rule:evenodd;stroke-width:0.41784844"
       d="m 131.51879,145.21389 h -1.3789 l 0.22563,-2.20624 h 1.37932 z"
       id="aux.2.dp"
       inkscape:label=""
       inkscape:connector-curvature="0" />
    <path
       style="clip-rule:evenodd;fill-rule:evenodd;stroke-width:0.41784844"
       d="m 135.9062,133.98213 h 4.41248 l 1.0279,1.15326 -1.2782,1.3789 h -4.51276 l -0.97818,-1.07805 z"
       id="aux.1.g"
       inkscape:label=""
       inkscape:connector-curvature="0" />
    <path
       style="clip-rule:evenodd;fill-rule:evenodd;stroke-width:0.41784844"
       d="m 140.92038,125.35773 c 0.56033,0.0472 1.32959,0.23567 1.70483,0.67692 l -1.62919,1.88032 h -4.3122 l -0.67733,-2.55724 z"
       id="aux.1.a"
       inkscape:label=""
       inkscape:connector-curvature="0" />
    <path
       style="clip-rule:evenodd;fill-rule:evenodd;stroke-width:0.41784844"
       d="m 143.55325,127.73947 v 0.15043 l -0.62678,5.64095 -1.22847,1.3789 -1.10312,-1.2034 0.67691,-5.39025 1.75496,-1.9806 v 0.0251 l 0.10028,0.10028 0.0752,0.10029 0.15003,0.25071 0.0501,0.12534 c 0.10486,0.25531 0.14924,0.52733 0.15082,0.80227 z"
       id="aux.1.b"
       inkscape:label=""
       inkscape:connector-curvature="0" />
    <path
       style="clip-rule:evenodd;fill-rule:evenodd;stroke-width:0.41784844"
       d="m 141.57264,142.55637 c -0.18844,0.89754 -0.58916,1.76792 -1.22889,2.43188 l -0.82734,-2.70765 0.75213,-5.28997 1.42946,-1.52932 0.77719,0.87748 -0.8779,6.06716 z"
       id="aux.1.c"
       inkscape:label=""
       inkscape:connector-curvature="0" />
    <path
       style="clip-rule:evenodd;fill-rule:evenodd;stroke-width:0.41784844"
       d="m 141.54724,157.39835 c 0.16632,-0.17717 0.29166,-0.3301 0.47636,-0.50142 l 0.10028,-0.10028 0.12571,-0.0752 0.10028,-0.0752 0.10029,-0.10028 h 0.0251 l 1.55398,5.9418 -1.30368,9.87794 -2.85768,3.0085 -1.65509,-1.8051 c 1.00783,-4.79356 -0.49016,-11.93835 3.33441,-16.17073 z"
       id="main.0.f"
       inkscape:label=""
       inkscape:connector-curvature="0" />
    <path
       style="clip-rule:evenodd;fill-rule:evenodd;stroke-width:1.57926965"
       d="m 406.4668,82.34375 -0.56836,0.09375 h -0.47071 c -1.56189,0.337965 -3.0001,1.23138 -3.79296,2.654297 l -0.56836,1.419922 -0.0918,0.568359 v 17.720702 c 0.12007,1.62822 1.13122,3.0004 2.46094,3.88477 0.71546,0.29057 1.65315,0.87157 2.46484,0.75781 l 0.47266,0.0957 h 73.24804 l 0.47461,-0.0957 c 1.24128,0.0616 3.32621,-1.02523 3.97852,-2.17969 l 0.57031,-0.94726 0.18945,-0.47461 0.1875,-0.94727 V 87.080078 c -0.06,-1.383458 -1.21249,-3.226858 -2.46484,-3.789062 l -0.37891,-0.285157 -0.47461,-0.189453 -0.5664,-0.189453 -0.47461,-0.09375 -0.47461,-0.0957 -0.56836,-0.09375 z m 26.80468,4.636719 c 5.17366,-0.202893 10.42318,4.527792 8.92188,11.566406 -3.46806,12.763655 -20.36726,6.935895 -16.67969,-5.306641 1.5765,-4.239737 4.65362,-6.13803 7.75781,-6.259765 z m -26.80273,0.0059 h 3.22266 v 7.865234 h 8.71679 v -7.865234 h 3.31641 v 18.761721 h -3.31641 v -7.769533 h -8.71679 v 7.769533 h -3.22266 z m 39.23047,0 h 3.31445 v 15.634761 h 10.89844 v 3.12696 h -14.21289 z m 17.52734,0 h 9.28711 c 6.63753,0.969714 7.74512,6.031994 7.10547,12.033203 -1.53819,8.439608 -9.70599,6.891038 -16.39258,6.728518 z m -29.45703,1.476563 c -3.57422,0.06225 -6.90388,5.71707 -5.0332,11.125 4.1156,10.031508 12.33736,1.914908 10.14062,-5.779297 -1.29475,-3.875577 -3.23521,-5.378308 -5.10742,-5.345703 z m 35.54297,1.501953 c -1.02599,0.03047 -2.01995,0.11291 -2.86328,0.148437 v 12.507808 c 8.12697,0.60964 10.76512,-0.196 9.85547,-8.812495 -0.53773,-3.554533 -3.91423,-3.935164 -6.99219,-3.84375 z"
       transform="matrix(0.26458333,0,0,0.26458333,24.575937,125.35773)"
       id="icon.hold"
       inkscape:label=""
       inkscape:connector-curvature="0" />
    <path
       style="clip-rule:evenodd;fill-rule:evenodd;stroke-width:0.41784844"
       d="m 152.62858,156.42059 c 1.28531,-0.003 2.93372,0.35183 3.86092,1.30368 l -3.25879,3.63528 h -8.64988 l -1.32877,-4.93896 z"
       id="main.0.a"
       inkscape:label=""
       inkscape:connector-curvature="0" />
    <path
       style="clip-rule:evenodd;fill-rule:evenodd;stroke-width:0.41784844"
       d="m 151.8518,173.19303 2.05541,2.20624 -2.53217,2.73272 h -9.05018 l -1.95553,-2.10596 2.65751,-2.833 z"
       id="main.0.g"
       inkscape:label=""
       inkscape:connector-curvature="0" />
    <path
       style="clip-rule:evenodd;fill-rule:evenodd;stroke-width:0.41784844"
       d="m 158.31969,161.18406 -0.0251,0.15042 -1.20341,10.98106 -2.50709,2.65751 -2.15567,-2.30651 1.32875,-10.50472 3.50952,-3.83584 c 0.72705,0.768 1.10729,1.79967 1.05298,2.85808 z"
       id="main.0.b"
       inkscape:label=""
       inkscape:connector-curvature="0" />
    <path
       style="clip-rule:evenodd;fill-rule:evenodd;stroke-width:0.41784844"
       d="m 146.73734,135.43624 1.32876,-1.45411 h 4.41248 l 1.02749,1.15326 -1.25354,1.3789 h -4.53784 z"
       id="aux.0.g"
       inkscape:label=""
       inkscape:connector-curvature="0" />
    <path
       style="clip-rule:evenodd;fill-rule:evenodd;stroke-width:0.41784844"
       d="m 155.71272,127.73947 v 0.15043 l -0.6017,5.64095 -1.25354,1.3789 -1.07847,-1.2034 0.65227,-5.39025 1.75454,-1.9806 c 0.33093,0.38484 0.56661,0.88709 0.5269,1.40397 z"
       id="aux.0.b"
       inkscape:label=""
       inkscape:connector-curvature="0" />
    <path
       style="clip-rule:evenodd;fill-rule:evenodd;stroke-width:0.41784844"
       d="m 152.95492,125.35773 c 0.58751,0 1.45328,0.2294 1.85484,0.67692 l -1.62919,1.88032 h -4.31262 l -0.6765,-2.55724 z"
       id="aux.0.a"
       inkscape:label=""
       inkscape:connector-curvature="0" />
    <path
       style="clip-rule:evenodd;fill-rule:evenodd;stroke-width:0.41784844"
       d="m 153.73213,142.55637 c -0.1638,0.90005 -0.58583,1.75204 -1.2034,2.43188 h -0.0251 l -0.82776,-2.70765 0.77761,-5.28997 1.42863,-1.52932 0.7772,0.87748 -0.90214,6.06716 z"
       id="aux.0.c"
       inkscape:label=""
       inkscape:connector-curvature="0" />
    <path
       style="clip-rule:evenodd;fill-rule:evenodd;stroke-width:1.57926965"
       d="m 545.85547,242.48047 v 20.94141 h 4.26367 v -9.38086 h 8.05274 v 9.38086 h 4.35937 v -20.94141 h -4.35937 v 7.96094 h -8.05274 v -7.96094 z m 19.04492,6.25391 v 3.12695 h 7.10742 l -7.58008,8.52929 v 3.03126 h 12.98243 v -3.22071 h -7.86719 l 7.58203,-8.24414 v -3.22265 z"
       transform="matrix(0.26458333,0,0,0.26458333,24.575937,125.35773)"
       id="unit.main.hz"
       inkscape:label=""
       inkscape:connector-curvature="0" />
    <path
       style="clip-rule:evenodd;fill-rule:evenodd;stroke-width:0.41784844"
       d="m 146.71236,204.18067 2.40638,2.75822 -2.40638,2.7578 h -3.63529 l 2.4068,-2.7578 -2.4068,-2.75822 z"
       id="bar.23"
       inkscape:label=""
       inkscape:connector-curvature="0" />
    <path
       style="clip-rule:evenodd;fill-rule:evenodd;stroke-width:0.41784844"
       d="m 137.51133,204.18067 2.4068,2.75822 -2.4068,2.7578 h -3.6357 l 2.38215,-2.7578 -2.38215,-2.75822 z"
       id="bar.21"
       inkscape:label=""
       inkscape:connector-curvature="0" />
    <path
       style="clip-rule:evenodd;fill-rule:evenodd;stroke-width:0.41784844"
       d="m 132.89828,204.18067 2.40639,2.75822 -2.40639,2.7578 H 129.263 l 2.40681,-2.7578 -2.40681,-2.75822 z"
       id="bar.20"
       inkscape:label=""
       inkscape:connector-curvature="0" />
    <path
       style="clip-rule:evenodd;fill-rule:evenodd;stroke-width:0.41784844"
       d="m 133.62533,195.05486 h -2.53217 l 0.72706,-4.71334 h 2.50709 z"
       id="main.1.dp"
       inkscape:label=""
       inkscape:connector-curvature="0" />
    <path
       style="clip-rule:evenodd;fill-rule:evenodd;stroke-width:0.41784844"
       d="m 150.99905,195.05486 h -10.27903 l -0.15003,-0.0251 h -0.1254 l -0.15082,-0.0251 c -0.1851,0.0226 -0.72997,-0.13739 -0.9272,-0.20056 -0.54613,-0.15003 -1.28112,-0.51563 -1.65509,-0.9527 l 3.03357,-3.7857 h 8.74975 z"
       id="main.0.d"
       inkscape:label=""
       inkscape:connector-curvature="0" />
    <path
       style="clip-rule:evenodd;fill-rule:evenodd;stroke-width:0.41784844"
       d="m 142.12395,204.18067 2.38173,2.75822 -2.38173,2.7578 h -3.66035 l 2.4068,-2.7578 -2.4068,-2.75822 z"
       id="bar.22"
       inkscape:label=""
       inkscape:connector-curvature="0" />
    <path
       style="clip-rule:evenodd;fill-rule:evenodd;stroke-width:0.41784844"
       d="m 155.93844,204.18067 2.40638,2.75822 -2.40638,2.7578 h -3.6357 l 2.40681,-2.7578 -2.40681,-2.75822 z"
       id="bar.25"
       inkscape:label=""
       inkscape:connector-curvature="0" />
    <path
       style="clip-rule:evenodd;fill-rule:evenodd;stroke-width:0.41784844"
       d="m 151.32539,204.18067 2.40681,2.75822 -2.40681,2.7578 h -3.6357 l 2.40722,-2.7578 -2.40722,-2.75822 z"
       id="bar.24"
       inkscape:label=""
       inkscape:connector-curvature="0" />
    <path
       style="clip-rule:evenodd;fill-rule:evenodd;stroke-width:0.41784844"
       d="m 154.38404,189.71476 c -0.32718,1.82516 -1.18837,3.55547 -2.48203,4.88882 l -1.65509,-5.28995 1.52975,-10.25401 2.85765,-3.00851 1.55483,1.72989 -1.78004,11.8084 z"
       id="main.0.c"
       inkscape:label=""
       inkscape:connector-curvature="0" />
    <path
       style="clip-rule:evenodd;fill-rule:evenodd;stroke-width:0.41784844"
       d="m 139.71714,176.57759 2.30653,2.45695 -1.70483,10.15373 -3.20907,3.81077 c -0.60046,-0.76091 -0.8123,-1.63462 -0.852,-2.58229 -0.0485,-3.66286 0.87916,-7.58647 1.02791,-11.08136 z"
       id="main.0.e"
       inkscape:label=""
       inkscape:connector-curvature="0" />
    <path
       style="clip-rule:evenodd;fill-rule:evenodd;stroke-width:0.41784844"
       d="m 121.99204,127.78965 c 0.1434,-0.76801 0.81773,-1.90121 1.45454,-2.35666 l 0.77719,3.05865 -0.62676,5.06432 -1.42905,1.5544 -0.82776,-0.92763 0.62678,-6.26772 z"
       id="aux.2.f"
       inkscape:label=""
       inkscape:connector-curvature="0" />
    <path
       style="clip-rule:evenodd;fill-rule:evenodd;stroke-width:0.41784844"
       d="m 126.95608,142.6567 0.75213,2.55723 h -4.93855 l -0.0756,0.0251 -0.12539,-0.0251 h -0.15003 l -0.12571,-0.0251 -0.12492,-0.0251 -0.15082,-0.0251 c -0.34139,-0.11282 -0.69697,-0.25948 -0.9527,-0.52649 l 1.52934,-1.95553 z"
       id="aux.2.d"
       inkscape:label=""
       inkscape:connector-curvature="0" />
    <path
       style="clip-rule:evenodd;fill-rule:evenodd;stroke-width:0.41784844"
       d="m 120.68878,144.06067 c -0.29752,-0.56201 -0.30796,-0.69822 -0.35099,-1.30369 0.046,-1.88951 0.32383,-3.68458 0.52648,-5.61588 l 1.20299,-1.40397 1.15327,1.25354 -0.852,5.21475 -1.60495,1.95553 z"
       id="aux.2.e"
       inkscape:label=""
       inkscape:connector-curvature="0" />
    <path
       style="clip-rule:evenodd;fill-rule:evenodd;stroke-width:0.41784844"
       d="m 119.36002,145.21393 h -1.3789 l 0.20057,-2.20624 h 1.37889 z"
       id="aux.3.dp"
       inkscape:label=""
       inkscape:connector-curvature="0" />
    <path
       style="clip-rule:evenodd;fill-rule:evenodd;stroke-width:0.41784844"
       d="m 109.80801,127.78965 c 0.14624,-0.68903 0.87706,-1.99982 1.47917,-2.35666 l 0.77721,3.05865 -0.65184,5.06432 -1.42905,1.5544 -0.82733,-0.92763 0.62676,-6.26772 z"
       id="aux.3.f"
       inkscape:label=""
       inkscape:connector-curvature="0" />
    <path
       style="clip-rule:evenodd;fill-rule:evenodd;stroke-width:0.41784844"
       d="m 109.00574,144.71251 -0.10028,-0.10028 1.50425,-1.95553 h 4.3874 l 0.75213,2.55723 h -4.96404 l -0.0501,0.0251 -0.15035,-0.0251 h -0.12539 l -0.15035,-0.0251 -0.12539,-0.0251 -0.1254,-0.0251 c -0.31172,-0.0777 -0.60421,-0.2177 -0.85241,-0.4262 z"
       id="aux.3.d"
       inkscape:label=""
       inkscape:connector-curvature="0" />
    <path
       style="clip-rule:evenodd;fill-rule:evenodd;stroke-width:0.41784844"
       d="m 105.79666,145.21393 0.22563,-2.20624 h 1.37891 l -0.22564,2.20624 z"
       id="aux.4.dp"
       inkscape:label=""
       inkscape:connector-curvature="0" />
    <path
       style="clip-rule:evenodd;fill-rule:evenodd;stroke-width:0.41784844"
       d="m 108.52938,144.06067 c -0.26825,-0.37565 -0.35516,-0.85116 -0.35099,-1.30369 -0.0196,-1.83686 0.47468,-3.92192 0.50142,-5.61588 l 1.22848,-1.40397 1.15326,1.25354 -0.85241,5.21475 -1.60453,1.95553 z"
       id="aux.3.e"
       inkscape:label=""
       inkscape:connector-curvature="0" />
    <path
       style="clip-rule:evenodd;fill-rule:evenodd;stroke-width:0.41784844"
       d="m 110.23421,135.43628 1.32876,-1.45411 h 4.41248 l 1.0279,1.15326 -1.25354,1.3789 h -4.53783 z"
       id="aux.3.g"
       inkscape:label=""
       inkscape:connector-curvature="0" />
    <path
       style="clip-rule:evenodd;fill-rule:evenodd;stroke-width:0.41784844"
       d="m 116.57713,125.35777 c 0.55992,0.0472 1.32918,0.23567 1.70483,0.67692 l -1.62962,1.88032 h -4.3122 l -0.65184,-2.55724 z"
       id="aux.3.a"
       inkscape:label=""
       inkscape:connector-curvature="0" />
    <path
       style="clip-rule:evenodd;fill-rule:evenodd;stroke-width:0.41784844"
       d="m 117.22898,142.55641 c -0.16297,0.85325 -0.613,1.81598 -1.22848,2.43188 l -0.82734,-2.70765 0.77719,-5.28997 1.40397,-1.52932 0.77721,0.87748 -0.87749,6.06716 z"
       id="aux.3.c"
       inkscape:label=""
       inkscape:connector-curvature="0" />
    <path
       style="clip-rule:evenodd;fill-rule:evenodd;stroke-width:0.41784844"
       d="m 119.20957,127.73951 v 0.15043 l -0.62676,5.64095 -1.22849,1.3789 -1.10312,-1.2034 0.67693,-5.39025 1.75496,-1.9806 v 0.0251 l 0.10028,0.10028 0.0752,0.10029 0.15034,0.25071 0.0502,0.12534 c 0.10313,0.30963 0.17342,0.47384 0.15035,0.80227 z"
       id="aux.3.b"
       inkscape:label=""
       inkscape:connector-curvature="0" />
    <path
       style="clip-rule:evenodd;fill-rule:evenodd;stroke-width:0.41784844"
       d="m 117.15376,157.39839 c 0.27662,-0.33971 0.56201,-0.58875 0.90255,-0.85241 l 1.57947,5.94181 -1.30368,9.87793 -2.85809,3.00851 -1.65468,-1.80511 1.27861,-12.15938 v -0.15043 l 0.0501,-0.12535 0.0251,-0.15042 0.0251,-0.12535 0.0501,-0.12534 0.0251,-0.12537 0.0501,-0.15042 c 0.14087,-0.38944 0.33094,-0.75338 0.50142,-1.12819 0.38233,-0.67859 0.8056,-1.35091 1.32875,-1.93046 z"
       id="main.1.f"
       inkscape:label=""
       inkscape:connector-curvature="0" />
    <path
       style="clip-rule:evenodd;fill-rule:evenodd;stroke-width:1.57926965"
       d="m 277.41406,82.34375 -0.47461,0.09375 h -0.56836 c -1.56034,0.467452 -2.91835,1.117692 -3.69531,2.654297 l -0.28516,0.472656 -0.18945,0.474609 -0.0957,0.472657 -0.0937,0.570312 v 17.718749 c 0.17061,1.77827 1.07257,2.79505 2.36914,3.88477 l 1.41992,0.56836 0.56836,0.18945 h 0.47461 l 0.56836,0.0957 h 59.0332 l 0.47461,-0.0957 c 1.24127,0.0616 3.32466,-1.02523 3.97852,-2.17969 l 0.56836,-0.94726 0.18945,-0.47266 0.0957,-0.47461 0.0937,-0.56836 V 87.082031 h 0.002 c -0.06,-1.38342 -1.2121,-3.228811 -2.46289,-3.791015 l -0.37891,-0.285157 -0.47461,-0.189453 -0.56836,-0.189453 -0.47461,-0.09375 -0.47266,-0.0957 -0.56835,-0.09375 z m -1.04492,4.642578 h 3.22266 l 6.53711,15.066402 6.63281,-15.066402 h 3.22266 v 18.761722 h -3.22266 V 94.472656 l -4.92578,11.275394 h -3.31641 L 279.5918,94.472656 v 11.275394 h -3.22266 z m 22.93164,0 h 15.25586 v 3.126953 h -12.03516 v 4.738281 h 9.85547 v 3.126954 h -9.85547 v 4.642574 h 12.03516 v 3.12696 h -15.25586 z m 18.57227,0 h 3.2207 l 6.63281,15.066402 6.53906,-15.066402 h 3.22266 v 18.761722 h -3.22266 V 94.472656 l -4.92773,11.275394 h -3.31641 l -4.92773,-11.275394 v 11.275394 h -3.2207 z"
       transform="matrix(0.26458333,0,0,0.26458333,24.575937,125.35773)"
       id="icon.mem"
       inkscape:label=""
       inkscape:connector-curvature="0" />
    <path
       style="clip-rule:evenodd;fill-rule:evenodd;stroke-width:1.57926965"
       d="m 355.58594,82.34375 -0.56836,0.09375 c -1.57455,0.04263 -3.02814,0.949451 -3.98047,2.179688 l -0.2832,0.474609 -0.56836,1.419922 -0.0957,0.570312 v 17.718749 c 0.32221,1.82721 0.94087,2.8172 2.46485,3.88477 0.71384,0.29057 1.64957,0.87157 2.46289,0.75781 l 0.47461,0.0957 h 32.7832 l 0.57031,-0.0957 c 1.5998,-0.0189 2.97415,-0.98577 3.97852,-2.17969 l 0.28516,-0.47265 0.56835,-1.42188 0.0957,-0.47461 V 87.082031 c -0.24163,-1.522393 -1.03089,-3.075626 -2.46485,-3.791015 -0.73436,-0.486577 -1.59273,-0.75865 -2.46289,-0.853516 l -0.47461,-0.09375 z m 7.01172,4.642578 h 3.31445 l 8.24609,18.761722 h -3.31836 l -1.61132,-3.60157 h -9.94727 l -1.51563,3.60157 h -3.3164 z m 1.70507,3.791016 -3.59961,8.242187 h 7.19922 z m 12.03321,3.505859 h 13.07617 v 3.126953 h -13.07617 z"
       transform="matrix(0.26458333,0,0,0.26458333,24.575937,125.35773)"
       id="icon.a-"
       inkscape:label=""
       inkscape:connector-curvature="0" />
    <path
       style="clip-rule:evenodd;fill-rule:evenodd;stroke-width:0.41784844"
       d="m 97.648586,127.78965 c 0.13661,-0.76257 0.82651,-1.90205 1.45411,-2.35666 l 0.77721,3.05865 -0.62678,5.06432 -1.42903,1.5544 -0.82735,-0.92763 0.62678,-6.26772 z"
       id="aux.4.f"
       inkscape:label=""
       inkscape:connector-curvature="0" />
    <path
       style="clip-rule:evenodd;fill-rule:evenodd;stroke-width:0.41784844"
       d="m 102.61263,142.6567 0.77721,2.55723 h -4.964044 l -0.0752,0.0251 -0.12539,-0.0251 h -0.12539 l -0.15035,-0.0251 -0.12539,-0.0251 -0.15035,-0.0251 c -0.3418,-0.1124 -0.69739,-0.25948 -0.9527,-0.52649 l 1.52932,-1.95553 z"
       id="aux.4.d"
       inkscape:label=""
       inkscape:connector-curvature="0" />
    <path
       style="clip-rule:evenodd;fill-rule:evenodd;stroke-width:0.41784844"
       d="m 96.344896,144.06067 c -0.33469,-0.67942 -0.26909,-0.58499 -0.35099,-1.30369 0.046,-1.88951 0.32383,-3.68458 0.5265,-5.61588 l 1.22846,-1.40397 1.15327,1.25354 -0.85241,5.21475 -1.60454,1.95553 z"
       id="aux.4.e"
       inkscape:label=""
       inkscape:connector-curvature="0" />
    <path
       style="clip-rule:evenodd;fill-rule:evenodd;stroke-width:1.57926965"
       d="m 257.93945,4.8164062 c -0.53171,-0.015226 -1.08571,0.020719 -1.6582,0.1113282 -4.3872,1.2665575 -5.66287,5.7600226 -5.68555,9.8535156 -0.38377,12.01663 12.5889,13.240096 13.92969,2.84375 h -3.31641 c -0.10892,2.41629 -2.28099,4.363487 -4.54882,3.316406 -2.35193,-0.928592 -2.61077,-3.892963 -2.65235,-6.064453 -0.0269,-1.989883 0.37136,-5.2289738 2.36914,-6.2539061 2.32146,-1.2286866 4.53534,0.3576268 4.83203,2.8417971 h 3.31641 c -0.23358,-3.9286207 -2.86392,-6.5418571 -6.58594,-6.6484378 z m -17.95703,0.015625 -5.68359,19.8046878 h 3.41015 L 238.8457,20.5625 h 5.78125 l 1.04297,4.074219 h 3.59961 L 243.67969,4.8320312 Z m 1.80078,4.5488282 1.99024,7.7695316 h -4.07422 z"
       transform="matrix(0.26458333,0,0,0.26458333,24.575937,125.35773)"
       id="icon.ac"
       inkscape:label=""
       inkscape:connector-curvature="0" />
    <path
       style="clip-rule:evenodd;fill-rule:evenodd;stroke-width:1.57926965"
       d="m 257.78906,46.302734 c -2.0207,0.03251 -4.04068,0.903064 -5.10937,2.591797 -2.10044,2.626318 -2.41006,7.144327 -1.79883,10.328125 1.2192,9.208592 12.64485,9.291838 13.64453,-0.09375 h -3.31641 c -0.15477,2.447849 -2.25095,4.300293 -4.54882,3.316406 -2.3232,-1.024932 -2.62211,-3.831357 -2.65235,-6.064453 -0.0174,-2.120957 0.38085,-5.136721 2.36914,-6.349609 2.55685,-0.999685 4.39928,0.225878 4.83203,2.9375 h 3.31641 c 0.18157,-1.552441 -1.22988,-4.320216 -2.46484,-5.210938 -1.1283,-0.998392 -2.69983,-1.48036 -4.27149,-1.455078 z m -22.35547,0.0332 v 19.804687 c 5.11839,-0.641197 9.09871,1.78518 11.94141,-3.222656 h -0.002 c 1.50807,-3.204322 1.73968,-6.94946 1.13476,-10.423828 -0.19736,-1.473487 -1.00689,-3.474548 -2.08398,-4.546875 L 246.04492,47.568359 245.57031,47.283203 245.19141,47 l -0.47461,-0.285156 -0.37696,-0.09375 -0.56836,-0.189453 h -0.4746 l -0.56641,-0.0957 z m 5.11719,3.333984 c 3.93752,-0.01626 4.65586,1.219894 4.92969,5.857422 0.002,2.300976 -0.32089,6.829248 -3.31836,7.107422 l -0.4707,0.09375 H 238.6582 V 49.748047 c 0.70199,-0.04718 1.33008,-0.0758 1.89258,-0.07813 z"
       transform="matrix(0.26458333,0,0,0.26458333,24.575937,125.35773)"
       id="icon.dc"
       inkscape:label=""
       inkscape:connector-curvature="0" />
    <path
       style="clip-rule:evenodd;fill-rule:evenodd;stroke-width:1.57926965"
       d="M 165.0293,2.1796875 V 22.552734 h 11.9414 v -3.695312 h -8.43359 V 2.1796875 Z m 48.04297,0 V 5.78125 h 8.43359 l -8.7168,13.169922 v 3.601562 h 13.16992 v -3.601562 h -8.8125 l 8.8125,-13.3613282 V 2.1796875 Z m -22.17188,4.7382813 3.50586,15.6347652 h 3.41016 l 1.99218,-11.371093 1.99024,11.371093 h 3.41015 l 3.60157,-15.6347652 h -3.41211 L 203.4082,18.193359 201.51367,6.9179688 h -3.31836 L 196.39648,18.099609 194.40625,6.9179688 Z m -6.5332,0.00195 c -1.97449,-0.031781 -3.96607,0.7887056 -5.02735,2.3671875 -2.10833,3.2248437 -2.09884,7.7574907 0,10.9902347 1.32189,1.751395 3.06942,2.349469 5.21094,2.27539 1.90462,0.03318 3.43387,-0.856195 4.54883,-2.36914 2.0027,-3.087459 2.01663,-7.338504 0.18945,-10.5175785 -0.99021,-1.8303685 -2.94738,-2.7143126 -4.92187,-2.7460937 z m -0.28321,3.2207032 c 0.57622,0.03367 1.23746,0.294129 1.98243,0.851563 2.38155,2.596345 1.00874,11.029199 -3.78907,7.580078 -1.94416,-2.169333 -1.30494,-8.6134793 1.80664,-8.431641 z"
       transform="matrix(0.26458333,0,0,0.26458333,24.575937,125.35773)"
       id="icon.lowz"
       inkscape:label=""
       inkscape:connector-curvature="0" />
    <path
       style="clip-rule:evenodd;fill-rule:evenodd;stroke-width:0.41784844"
       d="m 93.286246,136.01291 h -6.01701 l 0.47676,-2.7578 h 5.8411 z"
       id="aux.negative"
       inkscape:label=""
       inkscape:connector-curvature="0" />
    <path
       style="clip-rule:evenodd;fill-rule:evenodd;stroke-width:0.41784844"
       d="m 95.241776,162.48779 -1.30368,9.87793 -2.85809,3.00851 -1.65468,-1.80511 1.25355,-12.15938 0.0251,-0.15043 0.0254,-0.12535 0.0501,-0.15042 c 0.35516,-1.48462 1.64673,-3.53374 2.88316,-4.43755 z"
       id="main.2.f"
       inkscape:label=""
       inkscape:connector-curvature="0" />
    <path
       style="clip-rule:evenodd;fill-rule:evenodd;stroke-width:1.57926965"
       d="m 198.29102,72.962891 -0.47657,0.09375 h -0.5664 l -0.47461,0.189453 -0.47461,0.0957 c -1.28236,0.331653 -1.74736,0.61392 -2.8418,1.326172 -1.72615,1.209713 -3.15916,2.796392 -4.16992,4.642578 -4.00974,6.775068 -4.00963,16.350698 -0.37891,23.310546 2.2726,3.78237 5.08037,6.7426 9.75977,6.91797 h 53.91797 l 0.56836,-0.0957 h 0.47461 l 0.47265,-0.18945 0.56836,-0.0937 c 1.00917,-0.30006 1.94986,-0.75009 2.84375,-1.32813 1.85877,-1.3629 2.86029,-2.68334 4.16797,-4.54687 3.83131,-6.860341 4.12754,-16.500115 0.28516,-23.406257 -1.91089,-3.704995 -5.30093,-6.770882 -9.66602,-6.916015 z m 34.88671,7.050781 c 3.07092,0.146735 6.08245,2.662809 5.94922,7.447266 h -3.125 c 0.19268,-4.382476 -5.66569,-4.396648 -5.9707,-1.328126 -0.49742,2.146243 0.78191,2.758926 2.55859,3.316407 1.23028,0.671206 3.13383,0.893714 4.35938,1.707031 l 0.47461,0.283203 0.3789,0.285156 0.37891,0.378907 h 0.0937 c 4.88462,7.353108 -3.23589,16.582914 -10.23047,9.474604 h -0.002 c -1.05785,-1.47821 -1.44273,-3.319576 -1.42383,-5.115229 h 3.12695 c 0.29534,2.23627 0.92639,3.570589 3.41211,3.695309 2.29316,0.0142 3.54583,-1.141686 3.31641,-3.505856 -0.79593,-3.679673 -8.81167,-1.527647 -9.47656,-7.865235 -0.85747,-6.063357 2.69932,-8.939737 6.17968,-8.773437 z m -37.35351,0.71875 h 12.79492 v 3.980469 h -4.73828 V 103.47461 H 200.5625 V 84.712891 h -4.73828 z m 15.82617,0 h 11.37109 v 3.980469 h -8.14843 v 4.832031 h 7.48437 v 3.980469 h -7.48437 v 5.779297 h 8.52539 v 4.169922 h -11.74805 z m 29.84961,0 h 12.79102 0.002 v 3.980469 h -4.73828 v 18.761719 h -3.31836 V 84.712891 H 241.5 Z"
       transform="matrix(0.26458333,0,0,0.26458333,24.575937,125.35773)"
       id="icon.test"
       inkscape:label=""
       inkscape:connector-curvature="0" />
    <path
       style="clip-rule:evenodd;fill-rule:evenodd;stroke-width:0.41784844"
       d="m 103.84111,156.42063 c 1.31456,0.001 2.89528,0.35266 3.86092,1.30368 l -3.28429,3.63528 h -8.624404 l -1.32875,-4.93896 z"
       id="main.2.a"
       inkscape:label=""
       inkscape:connector-curvature="0" />
    <path
       style="clip-rule:evenodd;fill-rule:evenodd;stroke-width:0.41784844"
       d="m 94.213876,173.19307 h 8.850034 l 2.05581,2.20624 -2.53215,2.73272 h -9.050614 l -1.95553,-2.10596 z"
       id="main.2.g"
       inkscape:label=""
       inkscape:connector-curvature="0" />
    <path
       style="clip-rule:evenodd;fill-rule:evenodd;stroke-width:0.41784844"
       d="m 109.5322,161.1841 -0.0251,0.15042 -1.22848,10.98106 -2.48201,2.65751 -2.1561,-2.30651 1.32875,-10.50472 3.48486,-3.83584 c 0.73918,0.74627 1.12359,1.80552 1.07804,2.85808 z"
       id="main.2.b"
       inkscape:label=""
       inkscape:connector-curvature="0" />
    <path
       style="clip-rule:evenodd;fill-rule:evenodd;stroke-width:0.41784844"
       d="m 98.074796,135.43628 1.30369,-1.45411 h 4.412484 l 1.05298,1.15326 -1.27863,1.3789 h -4.512764 z"
       id="aux.4.g"
       inkscape:label=""
       inkscape:connector-curvature="0" />
    <path
       style="clip-rule:evenodd;fill-rule:evenodd;stroke-width:0.41784844"
       d="m 104.26731,125.35777 c 0.5875,0 1.45328,0.2294 1.85525,0.67692 l -1.6296,1.88032 h -4.3122 l -0.676924,-2.55724 z"
       id="aux.4.a"
       inkscape:label=""
       inkscape:connector-curvature="0" />
    <path
       style="clip-rule:evenodd;fill-rule:evenodd;stroke-width:0.41784844"
       d="m 107.05019,127.73951 -0.0251,0.15043 -0.6017,5.64095 -1.25355,1.3789 -1.07804,-1.2034 0.67691,-5.39025 1.7299,-1.9806 c 0.37229,0.3652 0.53107,0.89169 0.55156,1.40397 z"
       id="aux.4.b"
       inkscape:label=""
       inkscape:connector-curvature="0" />
    <path
       style="clip-rule:evenodd;fill-rule:evenodd;stroke-width:0.41784844"
       d="m 105.04452,142.55641 c -0.0706,0.42287 -0.22941,0.92387 -0.42622,1.30369 -0.0355,0.12243 -0.2695,0.45838 -0.35099,0.57663 l -0.0752,0.12536 -0.0752,0.10029 -0.10028,0.12536 -0.0752,0.10028 -0.10029,0.10029 h -0.0251 l -0.82733,-2.70766 0.77719,-5.28996 1.42905,-1.52933 0.77719,0.87749 -0.90255,6.06715 z"
       id="aux.4.c"
       inkscape:label=""
       inkscape:connector-curvature="0" />
    <path
       style="clip-rule:evenodd;fill-rule:evenodd;stroke-width:0.41784844"
       d="m 123.69727,204.18071 2.38173,2.75822 -2.38173,2.7578 h -3.66035 l 2.40681,-2.7578 -2.40681,-2.75822 z"
       id="bar.18"
       inkscape:label=""
       inkscape:connector-curvature="0" />
    <path
       style="clip-rule:evenodd;fill-rule:evenodd;stroke-width:0.41784844"
       d="m 109.85813,204.18071 2.40681,2.75822 -2.40681,2.7578 h -3.63529 l 2.40681,-2.7578 -2.40681,-2.75822 z"
       id="bar.15"
       inkscape:label=""
       inkscape:connector-curvature="0" />
    <path
       style="clip-rule:evenodd;fill-rule:evenodd;stroke-width:0.41784844"
       d="m 109.20629,195.0549 h -2.50709 l 0.70198,-4.71334 h 2.53216 z"
       id="main.2.dp"
       inkscape:label=""
       inkscape:connector-curvature="0" />
    <path
       style="clip-rule:evenodd;fill-rule:evenodd;stroke-width:0.41784844"
       d="m 114.47118,204.18071 2.4068,2.75822 -2.4068,2.7578 h -3.63529 l 2.38174,-2.7578 -2.38174,-2.75822 z"
       id="bar.16"
       inkscape:label=""
       inkscape:connector-curvature="0" />
    <path
       style="clip-rule:evenodd;fill-rule:evenodd;stroke-width:0.41784844"
       d="m 126.60507,195.0549 h -10.27865 l -0.15034,-0.0251 h -0.1254 l -0.1505,-0.0251 c -0.2365,0.018 -0.70072,-0.13613 -0.95269,-0.20056 -0.59041,-0.19138 -1.22346,-0.49724 -1.65468,-0.9527 l 3.05865,-3.7857 h 8.74932 z"
       id="main.1.d"
       inkscape:label=""
       inkscape:connector-curvature="0" />
    <path
       style="clip-rule:evenodd;fill-rule:evenodd;stroke-width:0.41784844"
       d="m 119.08422,204.18071 2.40681,2.75822 -2.40681,2.7578 h -3.63528 l 2.38174,-2.7578 -2.38174,-2.75822 z"
       id="bar.17"
       inkscape:label=""
       inkscape:connector-curvature="0" />
    <path
       style="clip-rule:evenodd;fill-rule:evenodd;stroke-width:0.41784844"
       d="m 100.6571,204.18071 2.38174,2.75822 -2.38174,2.7578 h -3.660354 l 2.4068,-2.7578 -2.4068,-2.75822 z"
       id="bar.13"
       inkscape:label=""
       inkscape:connector-curvature="0" />
    <path
       style="clip-rule:evenodd;fill-rule:evenodd;stroke-width:0.41784844"
       d="m 96.044046,204.18071 2.40681,2.75822 -2.40681,2.7578 h -3.63527 l 2.38173,-2.7578 -2.38173,-2.75822 z"
       id="bar.12"
       inkscape:label=""
       inkscape:connector-curvature="0" />
    <path
       style="clip-rule:evenodd;fill-rule:evenodd;stroke-width:0.41784844"
       d="m 86.817956,204.18071 2.40723,2.75822 -2.40723,2.7578 h -3.63527 l 2.40721,-2.7578 -2.40721,-2.75822 z"
       id="bar.10"
       inkscape:label=""
       inkscape:connector-curvature="0" />
    <path
       style="clip-rule:evenodd;fill-rule:evenodd;stroke-width:0.41784844"
       d="m 84.812286,195.05493 h -2.50709 l 0.70198,-4.71333 h 2.50709 z"
       id="main.3.dp"
       inkscape:label=""
       inkscape:connector-curvature="0" />
    <path
       style="clip-rule:evenodd;fill-rule:evenodd;stroke-width:0.41784844"
       d="M 102.2115,195.05493 H 91.907356 l -0.12539,-0.0251 h -0.15035 l -0.12539,-0.0251 c -0.22816,0.0229 -0.70575,-0.13961 -0.9527,-0.20057 -0.55909,-0.18302 -1.26149,-0.50184 -1.65468,-0.95269 l 3.03357,-3.78571 h 8.774824 z"
       id="main.2.d"
       inkscape:label=""
       inkscape:connector-curvature="0" />
    <path
       style="clip-rule:evenodd;fill-rule:evenodd;stroke-width:0.41784844"
       d="m 91.431006,204.18074 2.4068,2.75821 -2.4068,2.7578 h -3.63528 l 2.40722,-2.7578 -2.40722,-2.75821 z"
       id="bar.11"
       inkscape:label=""
       inkscape:connector-curvature="0" />
    <path
       style="clip-rule:evenodd;fill-rule:evenodd;stroke-width:0.41784844"
       d="m 105.24508,204.18074 2.40681,2.75821 -2.40681,2.7578 h -3.63529 l 2.40681,-2.7578 -2.40681,-2.75821 z"
       id="bar.14"
       inkscape:label=""
       inkscape:connector-curvature="0" />
    <path
       style="clip-rule:evenodd;fill-rule:evenodd;stroke-width:0.41784844"
       d="m 105.84679,176.05117 1.52931,1.7299 -1.78002,11.80841 -0.0501,0.25071 -0.0251,0.1505 -0.0251,0.12539 c -0.033,0.23148 -0.10202,0.45712 -0.1755,0.67691 -0.14166,0.43289 -0.33678,1.00535 -0.55156,1.40397 -0.1943,0.43624 -0.47217,0.91509 -0.75213,1.30369 -0.12208,0.19932 -0.28371,0.36645 -0.4262,0.55156 l -0.10028,0.10028 -0.0752,0.12539 -0.20057,0.20057 -0.0752,0.10029 -0.0501,0.0251 -1.62961,-5.28995 1.52933,-10.25401 z"
       id="main.2.c"
       inkscape:label=""
       inkscape:connector-curvature="0" />
    <path
       style="clip-rule:evenodd;fill-rule:evenodd;stroke-width:0.41784844"
       d="m 90.904516,176.57767 2.33159,2.45695 -1.70482,10.15372 -3.20908,3.81078 c -0.56116,-0.61424 -0.8758,-1.7579 -0.85241,-2.58231 -0.0777,-0.45671 0.0289,-0.91801 0,-1.37889 0.24195,-3.23165 0.50644,-6.45034 1.00243,-9.70245 z"
       id="main.2.e"
       inkscape:label=""
       inkscape:connector-curvature="0" />
    <path
       style="clip-rule:evenodd;fill-rule:evenodd;stroke-width:0.41784844"
       d="m 115.32359,176.57767 2.30652,2.45695 -1.70482,10.15372 -3.20908,3.81078 c -0.6347,-0.86579 -0.81229,-1.52515 -0.85241,-2.58231 -0.0706,-3.71342 0.89085,-7.3746 1.0279,-11.08134 z"
       id="main.1.e"
       inkscape:label=""
       inkscape:connector-curvature="0" />
    <path
       style="clip-rule:evenodd;fill-rule:evenodd;stroke-width:1.57926965"
       d="m 183.69922,36.955078 v 25.015625 h 10.32812 l 0.47461,-0.09375 h 0.56836 l 0.47461,-0.0957 c 0.7928,-0.251112 1.3686,-0.227168 2.08399,-0.757812 1.36924,-0.957015 2.32252,-2.399606 2.84179,-3.980469 0.76441,-3.098533 0.37836,-6.995464 -2.84179,-8.527344 3.03379,-1.666129 3.06897,-6.159932 1.61132,-8.90625 h -0.0957 c -0.90966,-1.813002 -2.9531,-2.464943 -4.83398,-2.654297 z m 19.13867,0 v 4.453125 h 6.25391 v 20.5625 h 4.35937 v -20.5625 h 6.25391 v -4.453125 z m -14.9707,4.359375 h 5.49609 l 0.47461,0.09375 0.56836,0.0957 c 1.6707,0.619087 1.77187,1.821433 1.51563,3.410156 -0.47067,1.083402 -0.23424,1.180198 -1.42188,1.611329 l -0.47266,0.189453 -0.56836,0.0957 h -5.59179 z m -0.002,9.664063 h 5.6875 l 0.56641,0.0957 0.47656,0.09375 c 1.76425,0.380598 2.14002,2.993302 1.60938,4.359375 L 196.11133,56 l -0.28711,0.474609 -0.75586,0.757813 h -0.0957 l -0.47461,0.189453 -0.47266,0.0957 -0.56836,0.09375 h -5.5918 z"
       transform="matrix(0.26458333,0,0,0.26458333,24.575937,125.35773)"
       id="icon.bt"
       inkscape:label=""
       inkscape:connector-curvature="0" />
    <path
       style="clip-rule:evenodd;fill-rule:evenodd;stroke-width:1.57926965"
       d="m 149.08789,2.5878906 c -4.70708,0.034555 -8.72044,4.7662525 -8.21875,10.4882814 -0.80538,7.438375 7.68143,14.121577 13.07617,7.011719 l 0.37891,2.464843 h 2.27148 V 12.128906 h -7.00976 v 3.222656 h 3.88476 c -0.85122,6.329726 -9.16598,5.528592 -9.00195,-1.800781 -0.0489,-2.428913 0.29389,-5.7877941 2.74805,-7.0117185 2.17304,-1.3597606 5.55752,-0.067177 5.875,2.6523437 h 3.50586 c -0.18788,-1.5761385 -0.77485,-3.1171143 -1.89454,-4.2636718 -1.82509,-1.6469788 -3.77333,-2.3533653 -5.61523,-2.3398438 z m -35.32031,0.066406 -6.06446,20.3710944 h 3.69532 l 1.13672,-4.167969 h 6.25586 l 1.13671,4.167969 h 3.78907 L 117.75,2.6542969 Z m 10.89648,0 5.78125,20.3710944 h 3.31641 l 5.7793,-20.3710944 H 135.8457 L 132.15039,18.099609 128.45312,2.6542969 Z m -9.00195,4.6425781 2.17969,8.0546873 h -4.35742 z"
       transform="matrix(0.26458333,0,0,0.26458333,24.575937,125.35773)"
       id="icon.avg"
       inkscape:label=""
       inkscape:connector-curvature="0" />
    <path
       style="clip-rule:evenodd;fill-rule:evenodd;stroke-width:0.41784844"
       d="m 68.817016,156.89702 0.12571,-0.10029 0.20015,-0.15042 0.1254,-0.10029 1.55482,5.94181 -1.27904,9.87794 -2.88273,3.00851 -1.62962,-1.80511 1.25355,-12.15939 0.0251,-0.15042 0.0254,-0.12535 0.0251,-0.15043 c 0.0794,-0.21519 0.13077,-0.44041 0.22565,-0.65184 0.16797,-0.45002 0.34556,-0.83444 0.57662,-1.25355 0.44795,-0.79934 1.00786,-1.52974 1.65385,-2.18116 z"
       id="main.3.f"
       inkscape:label=""
       inkscape:connector-curvature="0" />
    <g
       id="icon.main.ac"
       inkscape:label="">
      <path
         id="path4935"
         transform="matrix(0.26458333,0,0,0.26458333,24.575937,125.35773)"
         d="m 169.87695,84.6875 c -5.02668,-0.09379 -10.01806,4.128357 -9.48828,11.111328 1.05812,10.669572 14.36587,12.522272 18.09766,2.369141 h -3.79102 l -0.66211,1.042969 c -4.14712,5.105762 -10.70456,1.105122 -10.23242,-5.117188 0.76747,-6.258671 7.687,-8.486524 10.89453,-2.654297 h 3.79102 c -1.71494,-4.603965 -5.17007,-6.68778 -8.60938,-6.751953 z"
         style="clip-rule:evenodd;fill-rule:evenodd;stroke-width:1.57926965"
         inkscape:connector-curvature="0" />
      <path
         id="path4933"
         transform="matrix(0.26458333,0,0,0.26458333,24.575937,125.35773)"
         d="m 148.63867,84.712891 -7.58008,20.181639 h 3.50586 l 1.41993,-3.97851 h 8.71874 l 1.51563,3.97851 h 3.50781 l -7.58203,-20.181639 z m 1.70508,4.642578 3.12695,8.24414 h -6.2539 z"
         style="clip-rule:evenodd;fill-rule:evenodd;stroke-width:1.57926965"
         inkscape:connector-curvature="0" />
    </g>
    <g
       id="icon.main.dc"
       inkscape:label="">
      <path
         id="path4931"
         transform="matrix(0.26458333,0,0,0.26458333,24.575937,125.35773)"
         d="m 110.41016,84.867188 c -5.00096,-0.104172 -10.03002,4.108096 -9.62305,11.121093 1.29657,10.603239 14.38166,12.623339 18.09766,2.369141 h -3.69532 c -1.23976,2.289938 -3.12961,3.556408 -5.78125,3.316408 -11.252255,-3.060588 -1.69348,-20.889787 5.78125,-10.044924 h 3.69532 c -1.64501,-4.599482 -5.0529,-6.690443 -8.47461,-6.761718 z"
         style="clip-rule:evenodd;fill-rule:evenodd;stroke-width:1.57926965"
         inkscape:connector-curvature="0" />
      <path
         id="path4929"
         transform="matrix(0.26458333,0,0,0.26458333,24.575937,125.35773)"
         d="m 90.126953,84.892578 c -1.922669,-0.01766 -3.088952,0.591316 -7.439453,0.0098 v 20.181632 c 6.612397,0.60484 14.664491,0.91569 15.730469,-7.294914 0.443792,-5.857509 0.261057,-10.593109 -5.970703,-12.603515 -0.955068,-0.212391 -1.679423,-0.287082 -2.320313,-0.292969 z M 86.193359,88.3125 h 4.642579 c 4.996798,0.835427 4.232644,5.458889 4.076171,9.476562 -0.90017,4.453568 -4.979058,4.226458 -8.71875,3.978518 z"
         style="clip-rule:evenodd;fill-rule:evenodd;stroke-width:1.57926965"
         inkscape:connector-curvature="0" />
    </g>
    <path
       style="clip-rule:evenodd;fill-rule:evenodd;stroke-width:1.57926965"
       d="M 129.02344,86.511719 V 94.1875 h -6.91797 v 3.033203 h 6.91797 v 7.673827 h 3.88476 v -7.673827 h 7.01172 V 94.1875 h -7.01172 v -7.675781 z"
       transform="matrix(0.26458333,0,0,0.26458333,24.575937,125.35773)"
       id="icon.main.dc_ac"
       inkscape:label=""
       inkscape:connector-curvature="0" />
    <path
       style="clip-rule:evenodd;fill-rule:evenodd;stroke-width:1.57926965"
       d="M 48.859375,2.1796875 V 22.552734 h 3.316406 V 7.5800781 c 0,-0.7265008 -4.03e-4,-1.4512714 -0.002,-2.1777343 l 3.222656,17.1503902 h 3.41211 L 62.029297,5.4023438 V 22.552734 h 3.316406 V 2.1796875 H 60.230469 L 57.103516,18.193359 54.072266,2.1796875 Z m 24.636719,0 -6.064453,20.3730465 h 3.695312 l 1.138672,-4.169922 h 6.253906 l 1.138672,4.169922 h 3.787109 L 77.478516,2.1796875 Z m 10.990234,0 5.210938,9.9492185 -5.494141,10.423828 h 4.169922 l 3.412109,-7.011718 3.220703,7.011718 h 4.263672 L 93.773438,12.035156 98.984375,2.1796875 H 94.910156 L 91.783203,8.8125 88.75,2.1796875 Z m -9.09375,4.6425781 2.177734,8.0546874 h -4.357421 z"
       transform="matrix(0.26458333,0,0,0.26458333,24.575937,125.35773)"
       id="icon.max"
       inkscape:label=""
       inkscape:connector-curvature="0" />
    <path
       style="clip-rule:evenodd;fill-rule:evenodd;stroke-width:1.57926965"
       d="M 73.306641,39.988281 70.9375,41.314453 c 0.117014,0.827528 0.482942,1.698467 0.568359,2.652344 0.257726,1.105512 0.154106,1.848775 0.47461,3.033203 0.148157,2.17149 0.356211,4.136708 0.285156,6.347656 -0.02207,3.807647 -0.561111,8.188103 -1.611328,11.845703 l 2.558594,0.947266 c 2.184037,-8.494866 2.247801,-17.060658 0.283203,-25.583984 z m -4.833985,2.273438 -2.464844,1.232422 0.0957,0.09375 0.09375,0.474609 0.0957,0.568359 0.0957,0.472657 0.0957,0.568359 c 0.07106,0.8544 0.277597,1.701057 0.285156,2.558594 0.14211,1.130759 0.383343,3.965321 0.189453,5.023437 0.09317,3.098533 -0.572836,6.744912 -1.326172,9.759766 l 2.556641,0.947266 c 0.19714,-1.20344 0.576395,-2.480238 0.757813,-3.791016 0.243363,-1.195502 0.449979,-2.380409 0.472656,-3.59961 0.261921,-2.405215 0.247325,-5.253179 0.09766,-7.675781 -0.277946,-2.212535 -0.400588,-4.481845 -1.044922,-6.632812 z m -11.083984,0.378906 -7.960938,5.210937 v 10.423829 l 7.960938,5.210937 z m 6.251953,1.800781 -2.462891,1.230469 c 0.91253,5.236876 0.723118,10.007363 -0.570312,15.162109 l 2.466797,0.853516 c 0.821027,-2.661052 1.133416,-5.852993 1.326172,-8.623047 -0.0032,-2.735282 -0.147779,-5.464053 -0.664063,-8.150391 z m -19.423828,3.410156 v 10.423829 h 2.558594 V 47.851562 Z"
       transform="matrix(0.26458333,0,0,0.26458333,24.575937,125.35773)"
       id="icon.beep"
       inkscape:label=""
       inkscape:connector-curvature="0" />
    <path
       style="clip-rule:evenodd;fill-rule:evenodd;stroke-width:1.57926965"
       d="M 0.53320312,2.1796875 V 22.552734 H 3.8515625 V 5.4023438 L 7.0722656,22.552734 H 10.484375 L 13.705078,5.4023438 v 1.1367187 c 0,5.3379025 -4.03e-4,10.6757315 -0.002,16.0136715 h 3.316406 V 2.1796875 H 11.904297 L 8.7773438,18.193359 5.7460938,2.1796875 Z m 19.42578088,0 V 22.552734 h 3.50586 V 2.1796875 Z m 6.820313,0 V 22.552734 h 3.318359 V 8.0546875 l 6.917969,14.4980465 h 3.505859 V 2.1796875 H 37.205078 V 16.392578 L 30.476562,2.1796875 Z"
       transform="matrix(0.26458333,0,0,0.26458333,24.575937,125.35773)"
       id="icon.min"
       inkscape:label=""
       inkscape:connector-curvature="0" />
    <path
       style="clip-rule:evenodd;fill-rule:evenodd;stroke-width:1.57926965"
       d="m 6.125,114.75 v 8.33789 H 0.53515625 v 13.74023 H 6.125 v 8.3379 H 54.734375 V 114.75 Z m 8.716797,8.43359 h 5.023437 v 4.26368 h 4.263672 v 5.02148 h -4.263672 v 4.26367 h -5.023437 v -4.26367 h -4.263672 v -5.02148 h 4.263672 z m 19.519531,4.26368 h 13.550781 v 5.02148 H 34.361328 Z"
       transform="matrix(0.26458333,0,0,0.26458333,24.575937,125.35773)"
       id="icon.battery"
       inkscape:label=""
       inkscape:connector-curvature="0" />
    <path
       style="clip-rule:evenodd;fill-rule:evenodd;stroke-width:1.57926965"
       d="M 7.1679688,153.88477 0.53515625,172.45703 H 4.609375 l 1.2324219,-3.79101 h 6.8222651 l 1.230469,3.79101 h 4.171875 l -6.541015,-18.57226 z m 2.1796874,4.26367 2.2734378,7.29687 H 6.8828125 Z m 31.9843748,0.0332 c -1.600137,-0.0164 -3.367981,0.53751 -5.169922,1.86133 -2.746356,2.80165 -2.784159,7.68904 -0.378906,10.70703 1.887232,2.79844 8.095119,2.88873 10.138672,0.38086 4.695886,-5.55213 1.124932,-12.89053 -4.589844,-12.94922 z m -14.49414,0.23047 c -1.391677,0.10423 -2.776716,0.81831 -3.847657,2.29492 v -1.99023 h -3.410156 v 19.14062 h 3.50586 V 170.75 l 0.0957,0.0957 0.376953,0.47461 0.285156,0.37891 h 0.002 c 4.778873,3.37175 9.620308,-0.97207 8.998047,-6.72852 0.149877,-4.06396 -2.94417,-6.7879 -6.005859,-6.55859 z m 14.099609,2.85742 c 0.632869,0.0172 1.350236,0.24967 2.142578,0.76367 2.548951,2.70531 1.160927,9.77786 -3.695312,7.48633 -2.831588,-2.14934 -1.86476,-8.34302 1.552734,-8.25 z m -15.115234,0.21289 c 2.115772,-0.18404 4.167098,2.7238 3.136718,5.76172 -1.907716,5.48323 -7.476657,1.62673 -5.777343,-3.31641 0.704752,-1.64046 1.67891,-2.36165 2.640625,-2.44531 z"
       transform="matrix(0.26458333,0,0,0.26458333,24.575937,125.35773)"
       id="icon.apo"
       inkscape:label=""
       inkscape:connector-curvature="0" />
    <path
       style="clip-rule:evenodd;fill-rule:evenodd;stroke-width:0.41784844"
       d="m 43.946676,157.39843 c 0.16547,-0.17717 0.29124,-0.3301 0.47635,-0.50142 l 0.10028,-0.10028 0.10029,-0.0752 0.12539,-0.0752 0.10029,-0.10028 h 0.0251 l 1.55439,5.9418 -1.30327,9.87794 -2.8585,3.00851 -1.65468,-1.8051 c 1.04712,-4.79357 -0.50517,-11.93501 3.33442,-16.17074 z"
       id="main.4.f"
       inkscape:label=""
       inkscape:connector-curvature="0" />
    <path
       style="clip-rule:evenodd;fill-rule:evenodd;stroke-width:1.57926965"
       d="m 5.1796875,79.878906 -0.4746094,0.0957 c -1.3881827,0.334791 -3.05597,1.55408 -3.5078125,2.9375 C -0.83060209,88.000525 0.24527197,99.016602 0.63085938,102.7168 0.8882452,104.24871 1.6907717,105.71719 3,106.60156 c 0.7311874,0.50699 1.5943174,0.72533 2.4628906,0.85156 H 67.623047 l 0.568359,-0.0937 c 1.544542,-0.43272 2.831479,-1.46561 3.50586,-2.9375 1.869921,-5.129466 0.402438,-15.466437 0.568359,-19.804692 -0.363213,-1.512945 -1.063672,-3.079311 -2.462891,-3.884766 -0.734362,-0.486539 -1.592767,-0.75865 -2.46289,-0.853516 z m 55.4687505,4.796875 c 2.734311,-0.131558 5.565099,0.936116 7.066406,3.164063 2.42725,3.294349 2.322097,10.489207 -0.566406,13.455076 -2.721034,3.50283 -10.149917,3.35361 -12.507813,-0.66406 -2.487231,-3.196423 -2.450619,-10.481309 0.472656,-13.455079 1.339685,-1.570486 3.40847,-2.397677 5.535157,-2.5 z m -50.070313,0.03711 h 4.074219 L 20.71875,103.75781 H 16.833984 L 15.697266,99.873047 H 9.3476562 L 8.2089844,103.75781 H 4.4199219 Z m 10.707031,0 h 3.59961 v 11.939453 l 0.0957,0.472656 v 0.568359 l 0.09375,0.47461 0.189453,0.472656 c 0.263698,1.020208 0.624632,1.224418 1.613281,1.611325 1.662917,0.55748 3.828729,0.12912 4.359375,-1.800778 l 0.0957,-0.56836 0.0957,-0.472656 V 84.712891 h 3.695313 V 97.125 l -0.0957,0.568359 v 0.47461 l -0.0957,0.568359 -0.0957,0.47461 c -0.380637,1.247622 -0.503317,1.749952 -1.515626,2.748042 -1.443477,1.49571 -3.688092,1.88879 -5.6875,1.79883 -2.199911,-0.15949 -4.031818,-0.69088 -5.304687,-2.65234 -0.878098,-1.520845 -0.590542,-1.206044 -0.949219,-2.843751 l -0.09375,-0.56836 z m 16.583985,0 h 14.023437 v 3.410156 h -5.21289 v 15.634763 h -3.59961 V 88.123047 h -5.210937 z m 23.216797,3.183593 c -1.487273,0.01243 -2.958161,0.733296 -3.697266,2.123047 -1.352013,2.038866 -1.294157,6.984285 0.285156,8.90625 1.895131,2.457339 5.865694,2.167559 7.294922,-0.664062 1.205329,-2.334161 1.055579,-5.926963 -0.0957,-8.242188 -0.797537,-1.43949 -2.299837,-2.135481 -3.787109,-2.123047 z m -48.519532,1.173828 -2.271484,7.486329 h 4.451172 z"
       transform="matrix(0.26458333,0,0,0.26458333,24.575937,125.35773)"
       id="icon.auto"
       inkscape:label=""
       inkscape:connector-curvature="0" />
    <path
       style="clip-rule:evenodd;fill-rule:evenodd;stroke-width:0.41784844"
       d="m 55.028016,156.42067 c 1.28489,-0.003 2.93371,0.35183 3.86092,1.30368 l -3.25922,3.63528 h -8.64946 l -1.32876,-4.93896 z"
       id="main.4.a"
       inkscape:label=""
       inkscape:connector-curvature="0" />
    <path
       style="clip-rule:evenodd;fill-rule:evenodd;stroke-width:0.41784844"
       d="m 53.774466,178.13208 h -9.05018 l -1.95594,-2.10596 2.65752,-2.83302 h 8.82496 l 2.05581,2.20624 z"
       id="main.4.g"
       inkscape:label=""
       inkscape:connector-curvature="0" />
    <path
       style="clip-rule:evenodd;fill-rule:evenodd;stroke-width:0.41784844"
       d="m 60.719116,161.18414 -0.0251,0.15042 -1.2034,10.98106 -2.50709,2.65752 -2.1561,-2.30653 1.32876,-10.50471 3.50993,-3.83585 c 0.73081,0.78222 1.10396,1.78464 1.05298,2.85809 z"
       id="main.4.b"
       inkscape:label=""
       inkscape:connector-curvature="0" />
    <g
       id="icon.lowpass"
       inkscape:label="">
      <path
         id="path5925"
         d="m 63.953266,139.4226 v 0.77719 l -1.72988,2.08089 h 1.78002 v 0.7772 h -2.95837 v -0.72711 l 1.72991,-2.13102 h -1.60454 v -0.7772 z"
         style="clip-rule:evenodd;fill-rule:evenodd;stroke-width:0.41784844"
         inkscape:connector-curvature="0" />
      <path
         id="path5921"
         d="m 60.618836,138.19412 v 4.86376 h -1.00243 v -2.15609 h -1.85525 v 2.15609 h -0.97775 v -4.86375 h 0.97775 v 1.85524 h 1.85525 v -1.85524 z"
         style="clip-rule:evenodd;fill-rule:evenodd;stroke-width:0.41784844"
         inkscape:connector-curvature="0" />
      <path
         id="path5903"
         d="m 51.217236,143.05787 h -0.95227 v -3.33443 h -1.10355 v -0.65184 c 0.6226,-0.0506 1.20676,-0.0673 1.27904,-0.87748 h 0.77678 z"
         style="clip-rule:evenodd;fill-rule:evenodd;stroke-width:0.41784844"
         inkscape:connector-curvature="0" />
      <path
         id="path5867"
         d="m 62.825076,135.76224 3.9612,7.64662 1.07804,-0.45127 -4.28754,-8.2734 h -14.01463 v 1.07805 z"
         style="clip-rule:evenodd;fill-rule:evenodd;stroke-width:0.41784844"
         inkscape:connector-curvature="0" />
      <path
         id="path5853"
         d="m 56.431986,139.47273 -1.25355,1.35383 1.30369,2.23131 h -1.12818 l -0.85241,-1.52932 -0.37565,0.40113 v 1.12819 h -0.90255 v -4.86374 h 0.90255 v 2.63244 l 1.15326,-1.35383 z"
         style="clip-rule:evenodd;fill-rule:evenodd;stroke-width:0.41784844"
         inkscape:connector-curvature="0" />
    </g>
    <path
       style="clip-rule:evenodd;fill-rule:evenodd;stroke-width:0.41784844"
       d="m 73.003866,204.18075 2.4068,2.75821 -2.4068,2.7578 h -3.63529 l 2.38174,-2.7578 -2.38174,-2.75821 z"
       id="bar.7"
       inkscape:label=""
       inkscape:connector-curvature="0" />
    <path
       style="clip-rule:evenodd;fill-rule:evenodd;stroke-width:0.41784844"
       d="m 63.777766,204.18075 2.40681,2.75821 -2.40681,2.7578 h -3.63529 l 2.40681,-2.7578 -2.40681,-2.75821 z"
       id="bar.5"
       inkscape:label=""
       inkscape:connector-curvature="0" />
    <path
       style="clip-rule:evenodd;fill-rule:evenodd;stroke-width:0.41784841"
       d="m 169.77121,199.21265 c -0.3288,-0.0107 -0.71931,0.10907 -1.17254,0.40515 -0.53485,0.56743 -0.52029,2.14387 -0.27544,2.8329 0.17842,0.5783 0.48557,0.79287 1.07849,0.90279 0.42495,0.005 0.94588,-0.006 1.22835,-0.37621 0.83041,-1.22153 0.56593,-3.71825 -0.85886,-3.76463 z m -0.1447,0.68058 h 0.0253 l 0.20051,0.0253 0.15089,0.12557 c 0.25406,0.47007 0.23219,1.17874 0.19999,1.70481 10e-4,0.58789 -0.31836,1.3342 -0.97772,0.77721 -0.16836,-0.20516 -0.1583,-0.55433 -0.2005,-0.80253 -0.0183,-0.46465 -0.0297,-0.40781 0,-0.87747 l 0.0501,-0.40101 0.0501,-0.2005 v -0.0253 l 0.12609,-0.17519 0.17519,-0.12557 z"
       id="scale.100"
       inkscape:connector-curvature="0"
       inkscape:label="" />
    <path
       style="clip-rule:evenodd;fill-rule:evenodd;stroke-width:0.41784841"
       d="m 173.01235,199.23746 c -0.43523,0.0148 -0.85642,0.19014 -1.05368,0.53071 -0.42871,0.7116 -0.42868,2.10569 -0.10025,2.85823 0.28498,0.89503 1.90569,0.97895 2.35696,0.2005 0.42328,-0.74878 0.43034,-2.07016 0.10025,-2.85822 -0.16053,-0.50369 -0.74369,-0.75022 -1.30328,-0.73122 z m 0.0749,0.65577 h 0.0248 l 0.19999,0.0253 0.1509,0.12557 c 0.20175,0.31589 0.18032,0.48611 0.22582,0.85215 -0.0109,0.27034 0.0224,0.59065 -0.0248,0.85266 v 0.2005 l -0.10077,0.40101 v 0.0253 l -0.10025,0.17519 -0.17518,0.12557 -0.20051,0.0501 -0.0506,-0.0253 -0.2005,-0.0501 -0.1509,-0.12506 c -0.26614,-0.34556 -0.18739,-1.23918 -0.19999,-1.68 0.0518,-0.33261 0.0151,-0.52249 0.22531,-0.80202 l 0.1757,-0.12557 z"
       id="scale.1000"
       inkscape:connector-curvature="0"
       inkscape:label="" />
    <g
       id="scale.10"
       inkscape:label="">
      <path
         id="path6151"
         d="m 155.46209,195.68164 h 0.5265 v 2.73272 h -0.5265 v -2.00568 l -0.20097,0.15051 -0.2503,0.10028 -0.25112,0.0501 v -0.4262 l 0.25112,-0.0752 0.20016,-0.12539 0.15082,-0.1755 z"
         style="clip-rule:evenodd;fill-rule:evenodd;stroke-width:0.41784844"
         inkscape:connector-curvature="0" />
      <path
         id="path6149"
         d="m 157.36731,195.6816 -0.27595,0.0501 c -0.8286,0.25363 -0.64106,1.07717 -0.65216,1.75493 0.0113,0.63888 0.59851,1.06759 1.20355,0.87747 0.80898,-0.23023 0.65415,-1.11229 0.65215,-1.75493 l -0.0501,-0.30076 -0.12506,-0.25063 -0.2005,-0.20051 -0.27647,-0.12557 z m -0.10077,0.52658 h 0.17622 l 0.1757,0.0749 0.0997,0.1509 0.0501,0.17519 v 0.87746 l -0.0501,0.1757 -0.0997,0.12506 -0.1757,0.0754 h -0.17622 l -0.15038,-0.0754 -0.10025,-0.12506 -0.0496,-0.1757 v -0.87746 l 0.0496,-0.17519 0.10025,-0.1509 z"
         style="clip-rule:evenodd;fill-rule:evenodd;stroke-width:0.41784841"
         inkscape:connector-curvature="0" />
      <path
         inkscape:connector-curvature="0"
         id="path6143"
         d="m 162.10547,199.91861 c 0.50393,0.0343 0.85157,-0.20098 0.95312,-0.70198 h 0.6769 v 4.11162 h -0.85241 v -2.833 h -0.97775 v -0.55156 z"
         style="clip-rule:evenodd;fill-rule:evenodd;stroke-width:0.41784844" />
      <path
         inkscape:connector-curvature="0"
         id="path6141"
         d="m 165.91718,199.23746 c -0.43524,0.0148 -0.85644,0.19014 -1.05368,0.53071 -0.41871,0.70533 -0.43078,2.11195 -0.10026,2.85823 0.28497,0.89545 1.9056,0.97895 2.35645,0.2005 0.42375,-0.74878 0.43087,-2.07016 0.10077,-2.85822 -0.16053,-0.50369 -0.74369,-0.75022 -1.30328,-0.73122 z m 0.0388,0.64492 c 0.12634,-0.005 0.27244,0.0426 0.43718,0.16123 0.13828,0.31212 0.19348,0.49164 0.17518,0.85266 0.0393,0.206 0.0347,0.64698 0,0.85214 v 0.20103 l -0.10025,0.401 v 0.0248 l -0.0997,0.1757 -0.1757,0.12557 -0.20102,0.0501 -0.0501,-0.0253 -0.19999,-0.0248 -0.1509,-0.15037 v -5.3e-4 c -0.26657,-0.34556 -0.1879,-1.23867 -0.2005,-1.67949 -0.0138,-0.461 0.18684,-0.94894 0.56586,-0.96376 z"
         style="clip-rule:evenodd;fill-rule:evenodd;stroke-width:0.41784841" />
      <path
         id="path6123"
         d="m 132.87888,195.69762 c -0.46783,0.002 -0.93785,0.37499 -0.63303,1.11208 h 5.3e-4 c -0.6297,0.60044 -0.16546,1.73388 0.77721,1.57975 l 0.27544,-0.0755 0.25114,-0.17519 0.15038,-0.25114 0.10026,-0.27544 v -0.30075 l -0.10026,-0.27596 -0.20102,-0.22582 c 0.31297,-0.74607 -0.1528,-1.11433 -0.62063,-1.11208 z m -0.006,0.41031 0.1757,0.0248 0.10077,0.12558 0.0496,0.15038 -0.0496,0.17569 -0.10077,0.10026 -0.1757,0.0501 -0.15038,-0.0501 -0.12557,-0.10026 -0.0248,-0.17569 0.0248,-0.15038 0.12557,-0.12558 z m 0.0506,0.97772 0.17571,0.0755 0.12454,0.15038 0.0501,0.17518 -0.0501,0.1757 -0.12454,0.15038 -0.17571,0.0755 -0.17569,-0.0253 -0.1757,-0.12506 -0.0749,-0.15038 v -0.20051 l 0.0749,-0.15089 0.1757,-0.12506 z"
         style="clip-rule:evenodd;fill-rule:evenodd;stroke-width:0.41784841"
         inkscape:connector-curvature="0" />
      <path
         id="path5995"
         d="m 109.78262,195.55603 -0.27543,0.0501 -0.22583,0.1509 -0.20051,0.2005 -0.12557,0.25063 -0.0248,0.27596 v 1.00252 l 0.0248,0.30076 0.1509,0.25114 0.2005,0.20051 c 1.71986,0.89042 2.0601,-2.10556 0.17519,-1.60455 l -0.0253,-0.1757 0.0501,-0.17571 0.12558,-0.12505 0.15038,-0.0755 0.2005,0.0253 0.15089,0.10025 0.0749,0.15038 h 0.55139 l -0.0749,-0.27595 -0.15038,-0.22531 -0.22582,-0.1757 -0.25064,-0.10025 z m 0.005,1.53272 c 0.20339,-0.0379 0.4068,0.12082 0.44649,0.39791 -0.0848,0.6205 -0.85082,0.46299 -0.77722,-0.10025 0.0867,-0.18145 0.2087,-0.27491 0.33073,-0.29766 z"
         style="clip-rule:evenodd;fill-rule:evenodd;stroke-width:0.41784841"
         inkscape:connector-curvature="0" />
      <path
         id="path5969"
         d="m 86.842936,195.6816 -1.128096,1.75493 v 0.52659 h 1.128096 v 0.45113 h 0.526584 v -0.45113 h 0.350882 v -0.50127 H 87.36952 v -1.78025 z m 0,0.82734 v 0.95291 h -0.601512 z"
         style="clip-rule:evenodd;fill-rule:evenodd;stroke-width:0.41784841"
         inkscape:connector-curvature="0" />
      <path
         id="path5843"
         d="m 64.504816,196.98539 -0.82733,0.90256 h 1.00283 v 0.52649 h -1.73031 v -0.55156 l 1.07804,-1.2034 0.0756,-0.1505 v -0.17551 l -0.10028,-0.12539 -0.17549,-0.0752 -0.15035,0.0251 -0.15003,0.12539 -0.0501,0.1505 h -0.55156 l 0.0251,-0.25071 0.12571,-0.2507 0.20014,-0.20057 0.25114,-0.1254 0.27536,-0.0502 0.27577,0.0502 0.22565,0.1254 0.20056,0.1755 0.1254,0.25071 0.0501,0.27577 -0.0254,0.27579 -0.12539,0.25071 z"
         style="clip-rule:evenodd;fill-rule:evenodd;stroke-width:0.41784844"
         inkscape:connector-curvature="0" />
    </g>
    <path
       style="clip-rule:evenodd;fill-rule:evenodd;stroke-width:0.41784844"
       d="m 59.189786,204.18075 2.38174,2.75821 -2.38174,2.7578 h -3.66036 l 2.40681,-2.7578 -2.40681,-2.75821 z"
       id="bar.4"
       inkscape:label=""
       inkscape:connector-curvature="0" />
    <path
       style="clip-rule:evenodd;fill-rule:evenodd;stroke-width:0.41784841"
       d="m 169.92314,205.52906 c -0.32865,-0.0121 -0.71948,0.10783 -1.17358,0.40618 -0.53191,0.60379 -0.51538,2.14494 -0.27595,2.85822 0.178,0.57871 0.48546,0.79236 1.07797,0.90227 0.42369,0.007 0.94808,-0.007 1.22887,-0.37568 0.82329,-1.20864 0.56679,-3.73833 -0.85731,-3.79099 z m -0.14522,0.68213 h 0.0243 l 0.20102,0.0501 0.15038,0.12557 c 0.16247,0.20391 0.21771,0.60353 0.20051,0.85215 0.0165,0.35308 0.0211,0.70102 -0.0253,1.05368 -0.0464,0.356 -0.0362,0.50344 -0.35037,0.72657 l -0.2005,0.0253 h -0.0506 l -0.20051,-0.0501 -0.15038,-0.12557 -0.10025,-0.17519 v -0.0253 l -0.0501,-0.22582 -0.0506,-0.40101 c -0.0368,-0.20097 -0.0376,-0.68025 0,-0.87747 l 0.0506,-0.40101 0.0501,-0.2005 v -0.0253 l 0.12557,-0.17518 0.17519,-0.12558 z"
       id="scale.50"
       inkscape:connector-curvature="0"
       inkscape:label="" />
    <path
       style="clip-rule:evenodd;fill-rule:evenodd;stroke-width:0.41784841"
       d="m 173.08677,205.56007 c -0.50936,0.0243 -0.84396,0.0825 -1.1281,0.55087 -0.43957,0.63722 -0.41698,2.1647 -0.10025,2.85874 0.28498,0.89461 1.90569,0.97843 2.35696,0.19999 0.41743,-0.69573 0.42701,-2.14177 0.10025,-2.88303 -0.18093,-0.49515 -0.72285,-0.75037 -1.22886,-0.72657 z m 5.3e-4,0.65061 h 0.0248 l 0.19999,0.0501 0.15089,0.12557 c 0.32337,0.45713 0.21002,1.37391 0.20102,1.90583 l -0.10077,0.40101 v 0.0248 l -0.10025,0.1757 -0.17518,0.12558 -0.20051,0.0253 h -0.0506 l -0.2005,-0.0501 -0.1509,-0.12558 c -0.26414,-0.33261 -0.18739,-1.27201 -0.19999,-1.70532 0.0518,-0.33261 0.0151,-0.52248 0.22531,-0.80202 l 0.1757,-0.12557 z"
       id="scale.500"
       inkscape:connector-curvature="0"
       inkscape:label="" />
    <g
       id="scale.5"
       inkscape:label="">
      <path
         inkscape:connector-curvature="0"
         id="path6139"
         d="m 166.94457,208.66837 c 0.33679,-0.81189 -0.48804,-1.559 -1.10353,-0.80227 l -0.75172,-0.0501 0.30085,-2.25597 h 2.33118 v 0.67693 h -1.72988 l -0.15051,0.90212 c 1.17164,-0.68485 2.43313,0.28455 1.93045,1.70482 -0.52188,1.31539 -2.79415,1.07639 -2.80751,-0.35099 h 0.82692 l 0.0501,0.20057 0.10029,0.1755 0.0254,0.0502 0.17549,0.0998 0.22565,0.0254 c 0.27034,0.0218 0.48136,-0.13282 0.57662,-0.37607 z"
         style="clip-rule:evenodd;fill-rule:evenodd;stroke-width:0.41784844" />
      <path
         id="path6125"
         d="m 130.8418,195.6816 -1.12758,1.75493 v 0.52659 h 1.12758 v 0.45113 h 0.52658 v -0.45113 h 0.3514 v -0.50127 h -0.3514 v -1.78025 z m 0,0.82734 v 0.95291 h -0.60151 z"
         style="clip-rule:evenodd;fill-rule:evenodd;stroke-width:0.41784841"
         inkscape:connector-curvature="0" />
      <path
         id="path6099"
         d="m 152.50372,197.08561 v -1.40397 h 1.85524 v 0.52648 h -1.30368 v 0.35099 c 0.9995,-0.14545 1.61415,0.63179 1.12777,1.47919 -0.55532,0.71661 -1.63128,0.33594 -1.67933,-0.55156 h 0.55156 l 0.0251,0.17549 0.12539,0.1505 0.17508,0.0752 0.1755,-0.0251 0.17592,-0.10029 0.0752,-0.1505 0.0251,-0.17549 -0.0752,-0.1755 -0.1254,-0.1254 -0.20056,-0.0501 z"
         style="clip-rule:evenodd;fill-rule:evenodd;stroke-width:0.41784844"
         inkscape:connector-curvature="0" />
      <path
         id="path5993"
         d="m 108.55444,197.51184 c -0.006,1.20717 -1.86737,1.24227 -1.88032,0 h 0.52649 l 0.0752,0.20057 0.15034,0.1254 0.17551,0.0502 h 0.0251 l 0.15035,-0.0251 0.12539,-0.0752 0.0752,-0.12539 0.0501,-0.15035 v -0.0752 l -0.0501,-0.15051 -0.0752,-0.12539 -0.12539,-0.0752 -0.15035,-0.0251 h -0.27577 v -0.37606 h 0.27577 l 0.10028,-0.0251 0.0752,-0.0752 0.0752,-0.1254 0.0251,-0.10028 -0.0251,-0.10028 -0.0502,-0.10029 -0.0752,-0.0502 -0.10028,-0.0251 h -0.12539 l -0.10029,0.0752 -0.0501,0.1254 h -0.50142 c 0.0878,-1.37891 2.26141,-0.57956 1.30369,0.55156 l 0.20057,0.17549 0.12539,0.22564 z"
         style="clip-rule:evenodd;fill-rule:evenodd;stroke-width:0.41784844"
         inkscape:connector-curvature="0" />
      <path
         id="path5961"
         d="m 84.386086,197.88794 h 1.00241 v 0.52649 h -1.72989 v -0.55156 l 1.07805,-1.2034 0.0752,-0.1505 v -0.17551 l -0.10029,-0.12539 -0.1755,-0.0752 -0.17549,0.0251 -0.12539,0.12539 -0.0501,0.1505 h -0.57663 c 0.0317,-0.69655 0.83068,-1.13947 1.40397,-0.70198 l 0.20014,0.1755 0.1254,0.25071 0.0502,0.27577 -0.0251,0.27579 -0.1254,0.25071 -0.0254,0.0251 z"
         style="clip-rule:evenodd;fill-rule:evenodd;stroke-width:0.41784844"
         inkscape:connector-curvature="0" />
      <path
         id="path5839"
         d="m 62.298576,198.41444 h -0.50142 v -2.00567 l -0.22563,0.15051 -0.22564,0.10028 -0.25071,0.0501 v -0.42621 l 0.25071,-0.0752 0.22564,-0.17549 0.17549,-0.20057 0.0756,-0.27579 h 0.47635 v 2.85809 z"
         style="clip-rule:evenodd;fill-rule:evenodd;stroke-width:0.41784844"
         inkscape:connector-curvature="0" />
    </g>
    <path
       style="clip-rule:evenodd;fill-rule:evenodd;stroke-width:0.41784844"
       d="m 60.418266,195.05494 h -2.50709 l 0.70198,-4.71333 h 2.5071 z"
       id="main.4.dp"
       inkscape:label=""
       inkscape:connector-curvature="0" />
    <path
       style="clip-rule:evenodd;fill-rule:evenodd;stroke-width:0.41784844"
       d="m 77.792396,195.05494 h -10.27948 l -0.1254,-0.0251 h -0.15003 l -0.12571,-0.0251 c -0.21686,0.0234 -0.71995,-0.13503 -0.95228,-0.20057 -0.54696,-0.15334 -1.2761,-0.52065 -1.65468,-0.95269 l 3.03359,-3.78571 h 8.74933 z"
       id="main.3.d"
       inkscape:label=""
       inkscape:connector-curvature="0" />
    <path
       style="clip-rule:evenodd;fill-rule:evenodd;stroke-width:0.41784844"
       d="m 68.390816,204.18075 2.40681,2.75821 -2.40681,2.7578 h -3.63529 l 2.40681,-2.7578 -2.40681,-2.75821 z"
       id="bar.6"
       inkscape:label=""
       inkscape:connector-curvature="0" />
    <path
       style="clip-rule:evenodd;fill-rule:evenodd;stroke-width:0.41784844"
       d="m 49.963686,204.18075 2.40724,2.75821 -2.40724,2.7578 h -3.63486 l 2.38132,-2.7578 -2.38132,-2.75821 z"
       id="bar.2"
       inkscape:label=""
       inkscape:connector-curvature="0" />
    <g
       id="scale"
       inkscape:label="">
      <path
         inkscape:label=""
         id="scale.ticks"
         transform="matrix(0.26458333,0,0,0.26458333,24.575937,125.35773)"
         d="m 55.019531,279.24609 v 14.4043 h 3.59961 v -14.4043 z m 87.082029,0 v 14.4043 h 3.59961 v -14.4043 z m 87.08008,0 v 14.4043 h 3.59961 v -14.4043 z m 87.08008,0 v 14.4043 h 3.60156 v -14.4043 z m 87.08203,0 v 14.4043 h 3.59961 v -14.4043 z m 87.08008,0 v 14.4043 h 3.60156 v -14.4043 z m -417.968752,4.54883 v 9.85547 h 3.59961 v -9.85547 z m 17.433594,0 v 9.85547 h 3.601562 v -9.85547 z m 17.341798,0 v 9.85547 h 3.69531 v -9.85547 z m 17.43359,0 v 9.85547 h 3.60156 v -9.85547 z m 34.8711,0 v 9.85547 h 3.59961 v -9.85547 z m 17.33984,0 v 9.85547 h 3.69531 v -9.85547 z m 17.43555,0 v 9.85547 h 3.69531 v -9.85547 z m 17.43554,0 v 9.85547 h 3.59961 v -9.85547 z m 34.86914,0 v 9.85547 h 3.60157 v -9.85547 z m 17.3418,0 v 9.85547 h 3.69531 v -9.85547 z m 17.43555,0 v 9.85547 h 3.59961 v -9.85547 z m 17.43359,0 v 9.85547 h 3.60156 v -9.85547 z m 34.8711,0 v 9.85547 h 3.60156 v -9.85547 z m 17.33984,0 v 9.85547 h 3.69531 v -9.85547 z m 17.43359,0 v 9.85547 h 3.60157 v -9.85547 z m 17.43555,0 v 9.85547 h 3.60156 v -9.85547 z m 34.77539,0 v 9.85547 h 3.69531 v -9.85547 z m 17.4375,0 v 9.85547 h 3.59961 v -9.85547 z m 17.43359,0 v 9.85547 h 3.59961 v -9.85547 z m 17.43555,0 v 9.85547 h 3.60156 v -9.85547 z"
         style="clip-rule:evenodd;fill-rule:evenodd;stroke-width:1.57926965"
         inkscape:connector-curvature="0" />
      <path
         id="scale.0"
         transform="matrix(0.26458333,0,0,0.26458333,24.575937,125.35773)"
         d="m 56.628906,265.69727 c -3.011641,0.18319 -3.186669,2.73462 -3.126953,5.21093 0.176844,2.69579 -0.103148,4.42605 2.84375,5.21094 1.779893,0.03 3.505958,-0.68457 3.695313,-2.65234 0.246311,-2.86005 0.987752,-8.07454 -3.41211,-7.76953 z m 0.111328,1.86914 c 0.304993,-0.0125 0.630205,0.0651 0.931641,0.21484 l 0.283203,0.2832 0.189453,0.37891 0.0957,2.46484 -0.0957,2.36914 -0.283203,0.56836 -0.474609,0.18946 -0.47461,0.0957 h -0.378906 l -0.376953,-0.0957 -0.378906,-0.37891 -0.189453,-0.37891 -0.0957,-2.36914 0.0957,-2.46289 -0.002,-0.002 c 0.192496,-0.58843 0.645975,-0.85621 1.154296,-0.87695 z"
         style="clip-rule:evenodd;fill-rule:evenodd;stroke-width:1.57926965"
         inkscape:connector-curvature="0"
         inkscape:label="" />
    </g>
    <path
       style="clip-rule:evenodd;fill-rule:evenodd;stroke-width:0.41784844"
       d="m 53.398416,195.05494 h -10.2795 l -0.15003,-0.0251 h -0.1254 l -0.15034,-0.0251 c -0.18595,0.0226 -0.7304,-0.13739 -0.92762,-0.20057 -0.52858,-0.14118 -1.30871,-0.52357 -1.65468,-0.95269 l 3.03357,-3.78571 h 8.74933 z"
       id="main.4.d"
       inkscape:label=""
       inkscape:connector-curvature="0" />
    <path
       style="clip-rule:evenodd;fill-rule:evenodd;stroke-width:0.41784844"
       d="m 45.350646,204.18075 2.4068,2.75821 -2.4068,2.7578 h -3.63528 l 2.40681,-2.7578 -2.40681,-2.75821 z"
       id="bar.1"
       inkscape:label=""
       inkscape:connector-curvature="0" />
    <path
       style="clip-rule:evenodd;fill-rule:evenodd;stroke-width:0.41784844"
       d="m 54.576736,204.18075 2.40723,2.75821 -2.40723,2.7578 h -3.63486 l 2.38132,-2.7578 -2.38132,-2.75821 z"
       id="bar.3"
       inkscape:label=""
       inkscape:connector-curvature="0" />
    <path
       style="clip-rule:evenodd;fill-rule:evenodd;stroke-width:0.41784844"
       d="m 67.112186,189.18835 -3.20907,3.81078 c -0.62176,-0.83236 -0.77427,-1.57363 -0.85241,-2.58231 -0.0348,-3.66411 0.85827,-7.57895 1.02791,-11.08134 l 2.43187,-2.7578 2.30653,2.45695 z"
       id="main.3.e"
       inkscape:label=""
       inkscape:connector-curvature="0" />
    <path
       style="clip-rule:evenodd;fill-rule:evenodd;stroke-width:0.41784844"
       d="m 58.588086,177.78108 -1.78003,11.80841 -0.0502,0.25071 -0.0254,0.1505 -0.0251,0.12539 c -0.0731,0.22145 -0.11371,0.4521 -0.17549,0.67691 -0.20475,0.5478 -0.2833,0.85492 -0.55156,1.40397 -0.41827,0.85701 -1.01245,1.72237 -1.67976,2.40681 l -1.65468,-5.28995 1.52891,-10.25401 2.85851,-3.00851 z"
       id="main.4.c"
       inkscape:label=""
       inkscape:connector-curvature="0" />
    <path
       style="clip-rule:evenodd;fill-rule:evenodd;stroke-width:0.41784844"
       d="m 42.718206,189.18835 -3.20908,3.81078 c -0.58666,-0.73375 -0.82902,-1.66054 -0.85241,-2.58231 -0.0597,-3.69168 0.90966,-7.45861 1.0279,-11.08134 l 2.43189,-2.7578 2.30652,2.45695 z"
       id="main.4.e"
       inkscape:label=""
       inkscape:connector-curvature="0" />
    <path
       style="clip-rule:evenodd;fill-rule:evenodd;stroke-width:0.41784844"
       d="m 81.452746,176.05118 1.52934,1.7299 -1.78005,11.80841 -0.0502,0.25071 -0.0254,0.1505 -0.0251,0.12539 c -0.0196,0.18803 -0.1483,0.47843 -0.17551,0.67691 -0.15461,0.49014 -0.32383,0.94183 -0.55156,1.40397 -0.40906,0.86955 -0.99865,1.72864 -1.67974,2.40681 l -1.65468,-5.28995 1.5544,-10.25401 z"
       id="main.3.c"
       inkscape:label=""
       inkscape:connector-curvature="0" />
    <path
       style="clip-rule:evenodd;fill-rule:evenodd;stroke-width:0.41784844"
       d="m 77.616906,204.18075 2.38173,2.75821 -2.38173,2.7578 h -3.66035 l 2.40681,-2.7578 -2.40681,-2.75821 z"
       id="bar.8"
       inkscape:label=""
       inkscape:connector-curvature="0" />
    <path
       style="clip-rule:evenodd;fill-rule:evenodd;stroke-width:0.41784844"
       d="m 82.229956,204.18075 2.38173,2.75821 -2.38173,2.7578 h -3.66035 l 2.4068,-2.7578 -2.4068,-2.75821 z"
       id="bar.9"
       inkscape:label=""
       inkscape:connector-curvature="0" />
    <path
       style="clip-rule:evenodd;fill-rule:evenodd;stroke-width:0.41784844"
       d="m 79.447076,156.42067 c 0.71536,-0.007 1.4746,0.11574 2.1561,0.32592 0.34096,0.13161 0.70198,0.24068 1.00242,0.45127 l 0.25112,0.15043 0.10029,0.0752 0.0998,0.10028 0.12539,0.0752 0.10029,0.10029 v 0.0251 l -3.25922,3.63528 h -8.62439 l -1.32918,-4.93897 z"
       id="main.3.a"
       inkscape:label=""
       inkscape:connector-curvature="0" />
    <path
       style="clip-rule:evenodd;fill-rule:evenodd;stroke-width:0.41784844"
       d="m 78.193536,178.13208 h -9.07567 l -1.93046,-2.10596 2.63244,-2.83302 h 8.82496 l 2.08047,2.20624 z"
       id="main.3.g"
       inkscape:label=""
       inkscape:connector-curvature="0" />
    <path
       style="clip-rule:evenodd;fill-rule:evenodd;stroke-width:0.41784844"
       d="m 85.113106,161.18414 v 0.15042 l -1.22806,10.98106 -2.48201,2.65752 -2.18118,-2.30653 1.32877,-10.50471 3.50992,-3.83585 c 0.70324,0.75673 1.1637,1.81514 1.05256,2.85809 z"
       id="main.3.b"
       inkscape:label=""
       inkscape:connector-curvature="0" />
    <path
       style="clip-rule:evenodd;fill-rule:evenodd;stroke-width:0.41784844"
       d="m 131.79514,177.78108 -1.80511,11.80841 v 0.12539 l -0.0251,0.1254 -0.0251,0.15034 -0.0502,0.12539 c -0.033,0.23148 -0.10202,0.45712 -0.17549,0.67691 -0.11402,0.39487 -0.36061,1.04128 -0.55199,1.40397 -0.16337,0.43122 -0.48595,0.92304 -0.7517,1.30369 -0.1366,0.18553 -0.26073,0.38817 -0.42621,0.55156 l -0.0756,0.10028 -0.0998,0.1254 -0.10076,0.10028 -0.0752,0.10028 -0.0998,0.10029 -0.0501,0.0251 -1.6296,-5.28997 1.52932,-10.25399 2.85767,-3.00851 z"
       id="main.1.c"
       inkscape:label=""
       inkscape:connector-curvature="0" />
    <path
       style="clip-rule:evenodd;fill-rule:evenodd;stroke-width:0.41784844"
       d="m 128.2848,204.18075 2.4068,2.75821 -2.4068,2.7578 h -3.63487 l 2.40639,-2.7578 -2.40639,-2.75821 z"
       id="bar.19"
       inkscape:label=""
       inkscape:connector-curvature="0" />
    <path
       style="clip-rule:evenodd;fill-rule:evenodd;stroke-width:0.41784844"
       d="m 128.2347,156.42067 c 1.3158,0.003 2.8982,0.34723 3.86092,1.30368 l -3.28429,3.63528 h -8.62397 l -1.32876,-4.93896 z"
       id="main.1.a"
       inkscape:label=""
       inkscape:connector-curvature="0" />
    <path
       style="clip-rule:evenodd;fill-rule:evenodd;stroke-width:0.41784844"
       d="m 129.51331,175.39934 -2.53215,2.73274 h -9.05018 l -1.95553,-2.10596 2.63244,-2.83302 h 8.85003 z"
       id="main.1.g"
       inkscape:label=""
       inkscape:connector-curvature="0" />
    <path
       style="clip-rule:evenodd;fill-rule:evenodd;stroke-width:0.41784844"
       d="m 133.92579,161.18414 -0.0251,0.15042 -1.22848,10.98106 -2.48201,2.65752 -2.15569,-2.30653 1.32877,-10.50471 3.48484,-3.83585 c 0.72581,0.69572 1.14575,1.85483 1.07764,2.85809 z"
       id="main.1.b"
       inkscape:label=""
       inkscape:connector-curvature="0" />
    <path
       style="clip-rule:evenodd;fill-rule:evenodd;stroke-width:0.41784844"
       d="m 122.41866,135.43632 1.30369,-1.45411 h 4.41248 l 1.05257,1.15326 -1.27863,1.3789 h -4.53741 z"
       id="aux.2.g"
       inkscape:label=""
       inkscape:connector-curvature="0" />
    <path
       style="clip-rule:evenodd;fill-rule:evenodd;stroke-width:0.41784844"
       d="m 128.61119,125.35781 c 0.58749,0 1.45327,0.2294 1.85524,0.67692 l -1.63002,1.88032 h -4.3122 l -0.67692,-2.55724 z"
       id="aux.2.a"
       inkscape:label=""
       inkscape:connector-curvature="0" />
    <path
       style="clip-rule:evenodd;fill-rule:evenodd;stroke-width:0.41784844"
       d="m 131.39364,127.73955 -0.0251,0.15042 -0.6017,5.64096 -1.25355,1.3789 -1.07763,-1.2034 0.65184,-5.39025 1.75456,-1.9806 c 0.35475,0.34472 0.53734,0.91718 0.55156,1.40397 z"
       id="aux.2.b"
       inkscape:label=""
       inkscape:connector-curvature="0" />
    <path
       style="clip-rule:evenodd;fill-rule:evenodd;stroke-width:0.41784844"
       d="m 129.38838,142.55645 c -0.0706,0.42287 -0.22939,0.92387 -0.42663,1.30369 -0.11828,0.19096 -0.20724,0.40155 -0.35056,0.57663 l -0.0756,0.12536 -0.0749,0.10029 -0.10028,0.12536 -0.0756,0.10028 -0.10028,0.10029 h -0.0246 l -0.82735,-2.70766 0.77721,-5.28996 1.42862,-1.52933 0.77719,0.87749 -0.90212,6.06715 z"
       id="aux.2.c"
       inkscape:label=""
       inkscape:connector-curvature="0" />
    <path
       style="clip-rule:evenodd;fill-rule:evenodd;stroke-width:0.41784844"
       d="m 26.973756,179.78676 -2.20624,6.16744 3.43513,-1.12818 -0.97818,4.16177 -1.07806,-1.10312 1.30369,2.58229 2.65751,-2.03073 -1.67974,0.62676 1.47877,-5.44038 -3.53501,0.82733 2.73274,-5.0894 z"
       id="icon.flash"
       inkscape:label=""
       inkscape:connector-curvature="0" />
    <path
       style="clip-rule:evenodd;fill-rule:evenodd;stroke-width:0.41784844"
       d="m 30.759456,206.86333 h -1.25355 v -2.48201 h -2.4816 v -1.25354 h 2.4816 v -2.48203 h 1.25355 v 2.48203 h 2.48203 v 1.25354 h -2.48203 z"
       id="bar.positive"
       inkscape:label=""
       inkscape:connector-curvature="0" />
    <path
       style="clip-rule:evenodd;fill-rule:evenodd;stroke-width:0.41784844"
       d="m 33.241486,208.44281 v 1.25354 h -6.21759 v -1.25354 z"
       id="bar.negative"
       inkscape:label=""
       inkscape:connector-curvature="0" />
    <path
       style="clip-rule:evenodd;fill-rule:evenodd;stroke-width:0.41784844"
       d="m 35.322356,195.02986 -0.15034,0.0251 h -5.16461 l -0.12539,-0.0251 -0.1254,-0.0502 -0.10028,-0.10028 -0.0502,-0.12539 -0.0251,-0.1254 v -0.0752 l 0.0501,-0.1254 2.58229,-4.96403 0.0251,-0.0502 0.10028,-0.10029 c 0.22479,-0.13787 0.5152,-0.0802 0.65225,0.15035 l 2.58231,4.96404 0.0251,0.0502 0.0254,0.1505 -0.0254,0.1254 -0.0752,0.10028 -0.10028,0.10028 z"
       id="icon.rel"
       inkscape:label=""
       inkscape:connector-curvature="0" />
    <path
       style="clip-rule:evenodd;fill-rule:evenodd;stroke-width:0.41784844"
       d="m 32.840346,176.90359 h -8.07283 l 1.57946,-3.13385 h 8.04777 z"
       id="main.negative"
       inkscape:label=""
       inkscape:connector-curvature="0" />
    <path
       style="clip-rule:evenodd;fill-rule:evenodd;stroke-width:1.57926965"
       d="m 8.4941406,43.587891 v 8.054687 H 0.53515625 v 2.841797 H 8.4941406 v 8.054687 L 21.855469,54.484375 v 8.054687 h 2.367187 v -8.054687 h 7.960938 v -2.841797 h -7.960938 v -8.054687 h -2.367187 v 8.054687 z"
       transform="matrix(0.26458333,0,0,0.26458333,24.575937,125.35773)"
       id="icon.diode"
       inkscape:label=""
       inkscape:connector-curvature="0" />
  </g>
</svg>
